<?xml version="1.0" encoding="utf-8" standalone="no"?>
<!DOCTYPE svg PUBLIC "-//W3C//DTD SVG 1.1//EN"
  "http://www.w3.org/Graphics/SVG/1.1/DTD/svg11.dtd">
<!-- Created with matplotlib (http://matplotlib.org/) -->
<svg height="191pt" version="1.1" viewBox="0 0 582 191" width="582pt" xmlns="http://www.w3.org/2000/svg" xmlns:xlink="http://www.w3.org/1999/xlink">
 <defs>
  <style type="text/css">
*{stroke-linecap:butt;stroke-linejoin:round;stroke-miterlimit:100000;}
  </style>
 </defs>
 <g id="figure_1">
  <g id="patch_1">
   <path d="M 0 191.902099 
L 582.315975 191.902099 
L 582.315975 0 
L 0 0 
z
" style="fill:#ffffff;"/>
  </g>
  <g id="axes_1">
   <g id="patch_2">
    <path d="M 13.429959 175.434033 
L 571.429959 175.434033 
L 571.429959 8.034033 
L 13.429959 8.034033 
z
" style="fill:#ffffff;"/>
   </g>
   <g id="matplotlib.axis_1">
    <g id="xtick_1">
     <g id="line2d_1">
      <path clip-path="url(#pac975476f1)" d="M 13.429959 175.434033 
L 13.429959 8.034033 
" style="fill:none;stroke:#999999;stroke-dasharray:1.000000,3.000000;stroke-dashoffset:0.0;stroke-width:0.25;"/>
     </g>
     <g id="line2d_2">
      <defs>
       <path d="M 0 0 
L 0 -4 
" id="m0952d41a13" style="stroke:#000000;stroke-width:0.5;"/>
      </defs>
      <g>
       <use style="stroke:#000000;stroke-width:0.5;" x="13.42995875" xlink:href="#m0952d41a13" y="175.434032969"/>
      </g>
     </g>
     <g id="line2d_3">
      <defs>
       <path d="M 0 0 
L 0 4 
" id="m31653185c0" style="stroke:#000000;stroke-width:0.5;"/>
      </defs>
      <g>
       <use style="stroke:#000000;stroke-width:0.5;" x="13.42995875" xlink:href="#m31653185c0" y="8.03403296875"/>
      </g>
     </g>
     <g id="text_1">
      <!-- 0.0 -->
      <defs>
       <path d="M 9.421875 5.078125 
Q 9.421875 7.8125 11.28125 9.71875 
Q 13.140625 11.625 15.921875 11.625 
Q 18.609375 11.625 20.5 9.71875 
Q 22.40625 7.8125 22.40625 5.078125 
Q 22.40625 2.390625 20.5 0.484375 
Q 18.609375 -1.421875 15.921875 -1.421875 
Q 13.140625 -1.421875 11.28125 0.453125 
Q 9.421875 2.34375 9.421875 5.078125 
" id="BitstreamVeraSerif-Roman-2e"/>
       <path d="M 31.78125 3.421875 
Q 39.265625 3.421875 42.96875 11.625 
Q 46.6875 19.828125 46.6875 36.375 
Q 46.6875 52.984375 42.96875 61.1875 
Q 39.265625 69.390625 31.78125 69.390625 
Q 24.3125 69.390625 20.59375 61.1875 
Q 16.890625 52.984375 16.890625 36.375 
Q 16.890625 19.828125 20.59375 11.625 
Q 24.3125 3.421875 31.78125 3.421875 
M 31.78125 -1.421875 
Q 19.921875 -1.421875 13.25 8.53125 
Q 6.59375 18.5 6.59375 36.375 
Q 6.59375 54.296875 13.25 64.25 
Q 19.921875 74.21875 31.78125 74.21875 
Q 43.703125 74.21875 50.34375 64.25 
Q 56.984375 54.296875 56.984375 36.375 
Q 56.984375 18.5 50.34375 8.53125 
Q 43.703125 -1.421875 31.78125 -1.421875 
" id="BitstreamVeraSerif-Roman-30"/>
      </defs>
      <g transform="translate(6.14394203125 186.39648125)scale(0.09163 -0.09163)">
       <use xlink:href="#BitstreamVeraSerif-Roman-30"/>
       <use x="63.623046875" xlink:href="#BitstreamVeraSerif-Roman-2e"/>
       <use x="95.41015625" xlink:href="#BitstreamVeraSerif-Roman-30"/>
      </g>
     </g>
    </g>
    <g id="xtick_2">
     <g id="line2d_4">
      <path clip-path="url(#pac975476f1)" d="M 152.929959 175.434033 
L 152.929959 8.034033 
" style="fill:none;stroke:#999999;stroke-dasharray:1.000000,3.000000;stroke-dashoffset:0.0;stroke-width:0.25;"/>
     </g>
     <g id="line2d_5">
      <g>
       <use style="stroke:#000000;stroke-width:0.5;" x="152.92995875" xlink:href="#m0952d41a13" y="175.434032969"/>
      </g>
     </g>
     <g id="line2d_6">
      <g>
       <use style="stroke:#000000;stroke-width:0.5;" x="152.92995875" xlink:href="#m31653185c0" y="8.03403296875"/>
      </g>
     </g>
     <g id="text_2">
      <!-- 0.5 -->
      <defs>
       <path d="M 50.296875 72.90625 
L 50.296875 64.890625 
L 16.890625 64.890625 
L 16.890625 44 
Q 19.4375 45.75 22.828125 46.625 
Q 26.21875 47.515625 30.421875 47.515625 
Q 42.234375 47.515625 49.0625 40.96875 
Q 55.90625 34.421875 55.90625 23.09375 
Q 55.90625 11.53125 49 5.046875 
Q 42.09375 -1.421875 29.59375 -1.421875 
Q 24.5625 -1.421875 19.28125 -0.1875 
Q 14.015625 1.03125 8.5 3.515625 
L 8.5 17.671875 
L 14.015625 17.671875 
Q 14.453125 10.75 18.421875 7.078125 
Q 22.40625 3.421875 29.59375 3.421875 
Q 37.3125 3.421875 41.453125 8.5 
Q 45.609375 13.578125 45.609375 23.09375 
Q 45.609375 32.5625 41.484375 37.609375 
Q 37.359375 42.671875 29.59375 42.671875 
Q 25.203125 42.671875 21.84375 41.109375 
Q 18.5 39.546875 15.921875 36.28125 
L 11.71875 36.28125 
L 11.71875 72.90625 
z
" id="BitstreamVeraSerif-Roman-35"/>
      </defs>
      <g transform="translate(145.643942031 186.39648125)scale(0.09163 -0.09163)">
       <use xlink:href="#BitstreamVeraSerif-Roman-30"/>
       <use x="63.623046875" xlink:href="#BitstreamVeraSerif-Roman-2e"/>
       <use x="95.41015625" xlink:href="#BitstreamVeraSerif-Roman-35"/>
      </g>
     </g>
    </g>
    <g id="xtick_3">
     <g id="line2d_7">
      <path clip-path="url(#pac975476f1)" d="M 292.429959 175.434033 
L 292.429959 8.034033 
" style="fill:none;stroke:#999999;stroke-dasharray:1.000000,3.000000;stroke-dashoffset:0.0;stroke-width:0.25;"/>
     </g>
     <g id="line2d_8">
      <g>
       <use style="stroke:#000000;stroke-width:0.5;" x="292.42995875" xlink:href="#m0952d41a13" y="175.434032969"/>
      </g>
     </g>
     <g id="line2d_9">
      <g>
       <use style="stroke:#000000;stroke-width:0.5;" x="292.42995875" xlink:href="#m31653185c0" y="8.03403296875"/>
      </g>
     </g>
     <g id="text_3">
      <!-- 1.0 -->
      <defs>
       <path d="M 14.203125 0 
L 14.203125 5.171875 
L 26.90625 5.171875 
L 26.90625 65.828125 
L 12.203125 56.296875 
L 12.203125 62.703125 
L 29.984375 74.21875 
L 36.71875 74.21875 
L 36.71875 5.171875 
L 49.421875 5.171875 
L 49.421875 0 
z
" id="BitstreamVeraSerif-Roman-31"/>
      </defs>
      <g transform="translate(285.143942031 186.39648125)scale(0.09163 -0.09163)">
       <use xlink:href="#BitstreamVeraSerif-Roman-31"/>
       <use x="63.623046875" xlink:href="#BitstreamVeraSerif-Roman-2e"/>
       <use x="95.41015625" xlink:href="#BitstreamVeraSerif-Roman-30"/>
      </g>
     </g>
    </g>
    <g id="xtick_4">
     <g id="line2d_10">
      <path clip-path="url(#pac975476f1)" d="M 431.929959 175.434033 
L 431.929959 8.034033 
" style="fill:none;stroke:#999999;stroke-dasharray:1.000000,3.000000;stroke-dashoffset:0.0;stroke-width:0.25;"/>
     </g>
     <g id="line2d_11">
      <g>
       <use style="stroke:#000000;stroke-width:0.5;" x="431.92995875" xlink:href="#m0952d41a13" y="175.434032969"/>
      </g>
     </g>
     <g id="line2d_12">
      <g>
       <use style="stroke:#000000;stroke-width:0.5;" x="431.92995875" xlink:href="#m31653185c0" y="8.03403296875"/>
      </g>
     </g>
     <g id="text_4">
      <!-- 1.5 -->
      <g transform="translate(424.643942031 186.39648125)scale(0.09163 -0.09163)">
       <use xlink:href="#BitstreamVeraSerif-Roman-31"/>
       <use x="63.623046875" xlink:href="#BitstreamVeraSerif-Roman-2e"/>
       <use x="95.41015625" xlink:href="#BitstreamVeraSerif-Roman-35"/>
      </g>
     </g>
    </g>
    <g id="xtick_5">
     <g id="line2d_13">
      <path clip-path="url(#pac975476f1)" d="M 571.429959 175.434033 
L 571.429959 8.034033 
" style="fill:none;stroke:#999999;stroke-dasharray:1.000000,3.000000;stroke-dashoffset:0.0;stroke-width:0.25;"/>
     </g>
     <g id="line2d_14">
      <g>
       <use style="stroke:#000000;stroke-width:0.5;" x="571.42995875" xlink:href="#m0952d41a13" y="175.434032969"/>
      </g>
     </g>
     <g id="line2d_15">
      <g>
       <use style="stroke:#000000;stroke-width:0.5;" x="571.42995875" xlink:href="#m31653185c0" y="8.03403296875"/>
      </g>
     </g>
     <g id="text_5">
      <!-- 2.0 -->
      <defs>
       <path d="M 12.796875 55.515625 
L 7.328125 55.515625 
L 7.328125 68.5 
Q 12.546875 71.296875 17.84375 72.75 
Q 23.140625 74.21875 28.21875 74.21875 
Q 39.59375 74.21875 46.1875 68.703125 
Q 52.78125 63.1875 52.78125 53.71875 
Q 52.78125 43.015625 37.84375 28.125 
Q 36.671875 27 36.078125 26.421875 
L 17.671875 8.015625 
L 48.09375 8.015625 
L 48.09375 17 
L 53.8125 17 
L 53.8125 0 
L 6.78125 0 
L 6.78125 5.328125 
L 28.90625 27.390625 
Q 36.234375 34.71875 39.359375 40.84375 
Q 42.484375 46.96875 42.484375 53.71875 
Q 42.484375 61.078125 38.640625 65.234375 
Q 34.8125 69.390625 28.078125 69.390625 
Q 21.09375 69.390625 17.28125 65.921875 
Q 13.484375 62.453125 12.796875 55.515625 
" id="BitstreamVeraSerif-Roman-32"/>
      </defs>
      <g transform="translate(564.143942031 186.39648125)scale(0.09163 -0.09163)">
       <use xlink:href="#BitstreamVeraSerif-Roman-32"/>
       <use x="63.623046875" xlink:href="#BitstreamVeraSerif-Roman-2e"/>
       <use x="95.41015625" xlink:href="#BitstreamVeraSerif-Roman-30"/>
      </g>
     </g>
    </g>
   </g>
   <g id="matplotlib.axis_2">
    <g id="ytick_1">
     <g id="line2d_16">
      <path clip-path="url(#pac975476f1)" d="M 13.429959 175.434033 
L 571.429959 175.434033 
" style="fill:none;stroke:#999999;stroke-dasharray:1.000000,3.000000;stroke-dashoffset:0.0;stroke-width:0.25;"/>
     </g>
     <g id="line2d_17">
      <defs>
       <path d="M 0 0 
L 4 0 
" id="m6d402855e3" style="stroke:#000000;stroke-width:0.5;"/>
      </defs>
      <g>
       <use style="stroke:#000000;stroke-width:0.5;" x="13.42995875" xlink:href="#m6d402855e3" y="175.434032969"/>
      </g>
     </g>
     <g id="line2d_18">
      <defs>
       <path d="M 0 0 
L -4 0 
" id="m73bdfe5e48" style="stroke:#000000;stroke-width:0.5;"/>
      </defs>
      <g>
       <use style="stroke:#000000;stroke-width:0.5;" x="571.42995875" xlink:href="#m73bdfe5e48" y="175.434032969"/>
      </g>
     </g>
     <g id="text_6">
      <!-- 0 -->
      <g transform="translate(3.6 177.962448281)scale(0.09163 -0.09163)">
       <use xlink:href="#BitstreamVeraSerif-Roman-30"/>
      </g>
     </g>
    </g>
    <g id="ytick_2">
     <g id="line2d_19">
      <path clip-path="url(#pac975476f1)" d="M 13.429959 156.834033 
L 571.429959 156.834033 
" style="fill:none;stroke:#999999;stroke-dasharray:1.000000,3.000000;stroke-dashoffset:0.0;stroke-width:0.25;"/>
     </g>
     <g id="line2d_20">
      <g>
       <use style="stroke:#000000;stroke-width:0.5;" x="13.42995875" xlink:href="#m6d402855e3" y="156.834032969"/>
      </g>
     </g>
     <g id="line2d_21">
      <g>
       <use style="stroke:#000000;stroke-width:0.5;" x="571.42995875" xlink:href="#m73bdfe5e48" y="156.834032969"/>
      </g>
     </g>
     <g id="text_7">
      <!-- 1 -->
      <g transform="translate(3.6 159.362448281)scale(0.09163 -0.09163)">
       <use xlink:href="#BitstreamVeraSerif-Roman-31"/>
      </g>
     </g>
    </g>
    <g id="ytick_3">
     <g id="line2d_22">
      <path clip-path="url(#pac975476f1)" d="M 13.429959 138.234033 
L 571.429959 138.234033 
" style="fill:none;stroke:#999999;stroke-dasharray:1.000000,3.000000;stroke-dashoffset:0.0;stroke-width:0.25;"/>
     </g>
     <g id="line2d_23">
      <g>
       <use style="stroke:#000000;stroke-width:0.5;" x="13.42995875" xlink:href="#m6d402855e3" y="138.234032969"/>
      </g>
     </g>
     <g id="line2d_24">
      <g>
       <use style="stroke:#000000;stroke-width:0.5;" x="571.42995875" xlink:href="#m73bdfe5e48" y="138.234032969"/>
      </g>
     </g>
     <g id="text_8">
      <!-- 2 -->
      <g transform="translate(3.6 140.762448281)scale(0.09163 -0.09163)">
       <use xlink:href="#BitstreamVeraSerif-Roman-32"/>
      </g>
     </g>
    </g>
    <g id="ytick_4">
     <g id="line2d_25">
      <path clip-path="url(#pac975476f1)" d="M 13.429959 119.634033 
L 571.429959 119.634033 
" style="fill:none;stroke:#999999;stroke-dasharray:1.000000,3.000000;stroke-dashoffset:0.0;stroke-width:0.25;"/>
     </g>
     <g id="line2d_26">
      <g>
       <use style="stroke:#000000;stroke-width:0.5;" x="13.42995875" xlink:href="#m6d402855e3" y="119.634032969"/>
      </g>
     </g>
     <g id="line2d_27">
      <g>
       <use style="stroke:#000000;stroke-width:0.5;" x="571.42995875" xlink:href="#m73bdfe5e48" y="119.634032969"/>
      </g>
     </g>
     <g id="text_9">
      <!-- 3 -->
      <defs>
       <path d="M 9.71875 69.828125 
Q 15.4375 71.96875 20.671875 73.09375 
Q 25.921875 74.21875 30.515625 74.21875 
Q 41.21875 74.21875 47.21875 69.59375 
Q 53.21875 64.984375 53.21875 56.78125 
Q 53.21875 50.203125 49.0625 45.78125 
Q 44.921875 41.359375 37.3125 39.796875 
Q 46.296875 38.53125 51.25 33.28125 
Q 56.203125 28.03125 56.203125 19.671875 
Q 56.203125 9.46875 49.34375 4.015625 
Q 42.484375 -1.421875 29.59375 -1.421875 
Q 23.875 -1.421875 18.421875 -0.1875 
Q 12.984375 1.03125 7.625 3.515625 
L 7.625 17.671875 
L 13.09375 17.671875 
Q 13.578125 10.640625 17.828125 7.03125 
Q 22.078125 3.421875 29.78125 3.421875 
Q 37.25 3.421875 41.578125 7.734375 
Q 45.90625 12.0625 45.90625 19.578125 
Q 45.90625 28.171875 41.453125 32.59375 
Q 37.015625 37.015625 28.421875 37.015625 
L 23.78125 37.015625 
L 23.78125 42 
L 26.21875 42 
Q 34.765625 42 39.03125 45.53125 
Q 43.3125 49.078125 43.3125 56.203125 
Q 43.3125 62.59375 39.796875 65.984375 
Q 36.28125 69.390625 29.6875 69.390625 
Q 23.09375 69.390625 19.453125 66.265625 
Q 15.828125 63.140625 15.1875 56.984375 
L 9.71875 56.984375 
z
" id="BitstreamVeraSerif-Roman-33"/>
      </defs>
      <g transform="translate(3.6 122.162448281)scale(0.09163 -0.09163)">
       <use xlink:href="#BitstreamVeraSerif-Roman-33"/>
      </g>
     </g>
    </g>
    <g id="ytick_5">
     <g id="line2d_28">
      <path clip-path="url(#pac975476f1)" d="M 13.429959 101.034033 
L 571.429959 101.034033 
" style="fill:none;stroke:#999999;stroke-dasharray:1.000000,3.000000;stroke-dashoffset:0.0;stroke-width:0.25;"/>
     </g>
     <g id="line2d_29">
      <g>
       <use style="stroke:#000000;stroke-width:0.5;" x="13.42995875" xlink:href="#m6d402855e3" y="101.034032969"/>
      </g>
     </g>
     <g id="line2d_30">
      <g>
       <use style="stroke:#000000;stroke-width:0.5;" x="571.42995875" xlink:href="#m73bdfe5e48" y="101.034032969"/>
      </g>
     </g>
     <g id="text_10">
      <!-- 4 -->
      <defs>
       <path d="M 34.90625 24.703125 
L 34.90625 63.484375 
L 10.015625 24.703125 
z
M 56.390625 0 
L 23.1875 0 
L 23.1875 5.171875 
L 34.90625 5.171875 
L 34.90625 19.484375 
L 3.078125 19.484375 
L 3.078125 24.8125 
L 35.015625 74.21875 
L 44.671875 74.21875 
L 44.671875 24.703125 
L 58.59375 24.703125 
L 58.59375 19.484375 
L 44.671875 19.484375 
L 44.671875 5.171875 
L 56.390625 5.171875 
z
" id="BitstreamVeraSerif-Roman-34"/>
      </defs>
      <g transform="translate(3.6 103.562448281)scale(0.09163 -0.09163)">
       <use xlink:href="#BitstreamVeraSerif-Roman-34"/>
      </g>
     </g>
    </g>
    <g id="ytick_6">
     <g id="line2d_31">
      <path clip-path="url(#pac975476f1)" d="M 13.429959 82.434033 
L 571.429959 82.434033 
" style="fill:none;stroke:#999999;stroke-dasharray:1.000000,3.000000;stroke-dashoffset:0.0;stroke-width:0.25;"/>
     </g>
     <g id="line2d_32">
      <g>
       <use style="stroke:#000000;stroke-width:0.5;" x="13.42995875" xlink:href="#m6d402855e3" y="82.4340329687"/>
      </g>
     </g>
     <g id="line2d_33">
      <g>
       <use style="stroke:#000000;stroke-width:0.5;" x="571.42995875" xlink:href="#m73bdfe5e48" y="82.4340329687"/>
      </g>
     </g>
     <g id="text_11">
      <!-- 5 -->
      <g transform="translate(3.6 84.9624482812)scale(0.09163 -0.09163)">
       <use xlink:href="#BitstreamVeraSerif-Roman-35"/>
      </g>
     </g>
    </g>
    <g id="ytick_7">
     <g id="line2d_34">
      <path clip-path="url(#pac975476f1)" d="M 13.429959 63.834033 
L 571.429959 63.834033 
" style="fill:none;stroke:#999999;stroke-dasharray:1.000000,3.000000;stroke-dashoffset:0.0;stroke-width:0.25;"/>
     </g>
     <g id="line2d_35">
      <g>
       <use style="stroke:#000000;stroke-width:0.5;" x="13.42995875" xlink:href="#m6d402855e3" y="63.8340329687"/>
      </g>
     </g>
     <g id="line2d_36">
      <g>
       <use style="stroke:#000000;stroke-width:0.5;" x="571.42995875" xlink:href="#m73bdfe5e48" y="63.8340329687"/>
      </g>
     </g>
     <g id="text_12">
      <!-- 6 -->
      <defs>
       <path d="M 32.71875 3.421875 
Q 39.59375 3.421875 43.296875 8.46875 
Q 47.015625 13.53125 47.015625 23 
Q 47.015625 32.46875 43.296875 37.515625 
Q 39.59375 42.578125 32.71875 42.578125 
Q 25.734375 42.578125 22.0625 37.6875 
Q 18.40625 32.8125 18.40625 23.578125 
Q 18.40625 13.875 22.109375 8.640625 
Q 25.828125 3.421875 32.71875 3.421875 
M 16.796875 40.140625 
Q 20.125 43.796875 24.3125 45.59375 
Q 28.515625 47.40625 33.796875 47.40625 
Q 44.671875 47.40625 51 40.859375 
Q 57.328125 34.328125 57.328125 23 
Q 57.328125 11.921875 50.515625 5.25 
Q 43.703125 -1.421875 32.328125 -1.421875 
Q 19.96875 -1.421875 13.328125 7.78125 
Q 6.6875 17 6.6875 34.078125 
Q 6.6875 53.21875 14.546875 63.71875 
Q 22.40625 74.21875 36.71875 74.21875 
Q 40.578125 74.21875 44.828125 73.484375 
Q 49.078125 72.75 53.515625 71.296875 
L 53.515625 59.28125 
L 48 59.28125 
Q 47.40625 64.203125 44.234375 66.796875 
Q 41.0625 69.390625 35.6875 69.390625 
Q 26.21875 69.390625 21.578125 62.203125 
Q 16.9375 55.03125 16.796875 40.140625 
" id="BitstreamVeraSerif-Roman-36"/>
      </defs>
      <g transform="translate(3.6 66.3624482812)scale(0.09163 -0.09163)">
       <use xlink:href="#BitstreamVeraSerif-Roman-36"/>
      </g>
     </g>
    </g>
    <g id="ytick_8">
     <g id="line2d_37">
      <path clip-path="url(#pac975476f1)" d="M 13.429959 45.234033 
L 571.429959 45.234033 
" style="fill:none;stroke:#999999;stroke-dasharray:1.000000,3.000000;stroke-dashoffset:0.0;stroke-width:0.25;"/>
     </g>
     <g id="line2d_38">
      <g>
       <use style="stroke:#000000;stroke-width:0.5;" x="13.42995875" xlink:href="#m6d402855e3" y="45.2340329687"/>
      </g>
     </g>
     <g id="line2d_39">
      <g>
       <use style="stroke:#000000;stroke-width:0.5;" x="571.42995875" xlink:href="#m73bdfe5e48" y="45.2340329687"/>
      </g>
     </g>
     <g id="text_13">
      <!-- 7 -->
      <defs>
       <path d="M 56.390625 67.921875 
L 27.875 0 
L 20.609375 0 
L 47.796875 64.890625 
L 14.109375 64.890625 
L 14.109375 55.90625 
L 8.40625 55.90625 
L 8.40625 72.90625 
L 56.390625 72.90625 
z
" id="BitstreamVeraSerif-Roman-37"/>
      </defs>
      <g transform="translate(3.6 47.7624482812)scale(0.09163 -0.09163)">
       <use xlink:href="#BitstreamVeraSerif-Roman-37"/>
      </g>
     </g>
    </g>
    <g id="ytick_9">
     <g id="line2d_40">
      <path clip-path="url(#pac975476f1)" d="M 13.429959 26.634033 
L 571.429959 26.634033 
" style="fill:none;stroke:#999999;stroke-dasharray:1.000000,3.000000;stroke-dashoffset:0.0;stroke-width:0.25;"/>
     </g>
     <g id="line2d_41">
      <g>
       <use style="stroke:#000000;stroke-width:0.5;" x="13.42995875" xlink:href="#m6d402855e3" y="26.6340329687"/>
      </g>
     </g>
     <g id="line2d_42">
      <g>
       <use style="stroke:#000000;stroke-width:0.5;" x="571.42995875" xlink:href="#m73bdfe5e48" y="26.6340329687"/>
      </g>
     </g>
     <g id="text_14">
      <!-- 8 -->
      <defs>
       <path d="M 46.578125 19.921875 
Q 46.578125 27.734375 42.6875 32.046875 
Q 38.8125 36.375 31.78125 36.375 
Q 24.75 36.375 20.875 32.046875 
Q 17 27.734375 17 19.921875 
Q 17 12.0625 20.875 7.734375 
Q 24.75 3.421875 31.78125 3.421875 
Q 38.8125 3.421875 42.6875 7.734375 
Q 46.578125 12.0625 46.578125 19.921875 
M 44.578125 55.328125 
Q 44.578125 61.96875 41.203125 65.671875 
Q 37.84375 69.390625 31.78125 69.390625 
Q 25.78125 69.390625 22.390625 65.671875 
Q 19 61.96875 19 55.328125 
Q 19 48.640625 22.390625 44.921875 
Q 25.78125 41.21875 31.78125 41.21875 
Q 37.84375 41.21875 41.203125 44.921875 
Q 44.578125 48.640625 44.578125 55.328125 
M 39.3125 38.8125 
Q 47.609375 37.703125 52.25 32.6875 
Q 56.890625 27.6875 56.890625 19.921875 
Q 56.890625 9.671875 50.390625 4.125 
Q 43.890625 -1.421875 31.78125 -1.421875 
Q 19.734375 -1.421875 13.203125 4.125 
Q 6.6875 9.671875 6.6875 19.921875 
Q 6.6875 27.6875 11.328125 32.6875 
Q 15.96875 37.703125 24.3125 38.8125 
Q 16.9375 40.140625 13 44.40625 
Q 9.078125 48.6875 9.078125 55.328125 
Q 9.078125 64.109375 15.125 69.15625 
Q 21.1875 74.21875 31.78125 74.21875 
Q 42.390625 74.21875 48.4375 69.15625 
Q 54.5 64.109375 54.5 55.328125 
Q 54.5 48.6875 50.5625 44.40625 
Q 46.625 40.140625 39.3125 38.8125 
" id="BitstreamVeraSerif-Roman-38"/>
      </defs>
      <g transform="translate(3.6 29.1624482812)scale(0.09163 -0.09163)">
       <use xlink:href="#BitstreamVeraSerif-Roman-38"/>
      </g>
     </g>
    </g>
    <g id="ytick_10">
     <g id="line2d_43">
      <path clip-path="url(#pac975476f1)" d="M 13.429959 8.034033 
L 571.429959 8.034033 
" style="fill:none;stroke:#999999;stroke-dasharray:1.000000,3.000000;stroke-dashoffset:0.0;stroke-width:0.25;"/>
     </g>
     <g id="line2d_44">
      <g>
       <use style="stroke:#000000;stroke-width:0.5;" x="13.42995875" xlink:href="#m6d402855e3" y="8.03403296875"/>
      </g>
     </g>
     <g id="line2d_45">
      <g>
       <use style="stroke:#000000;stroke-width:0.5;" x="571.42995875" xlink:href="#m73bdfe5e48" y="8.03403296875"/>
      </g>
     </g>
     <g id="text_15">
      <!-- 9 -->
      <defs>
       <path d="M 46.78125 32.671875 
Q 43.5 29 39.25 27.1875 
Q 35.015625 25.390625 29.6875 25.390625 
Q 18.84375 25.390625 12.5625 31.9375 
Q 6.296875 38.484375 6.296875 49.8125 
Q 6.296875 60.890625 13.109375 67.546875 
Q 19.921875 74.21875 31.296875 74.21875 
Q 43.65625 74.21875 50.265625 65.015625 
Q 56.890625 55.8125 56.890625 38.71875 
Q 56.890625 19.578125 49.015625 9.078125 
Q 41.15625 -1.421875 26.90625 -1.421875 
Q 23.046875 -1.421875 18.796875 -0.6875 
Q 14.546875 0.046875 10.109375 1.515625 
L 10.109375 13.625 
L 15.578125 13.625 
Q 16.21875 8.6875 19.390625 6.046875 
Q 22.5625 3.421875 27.875 3.421875 
Q 37.359375 3.421875 41.984375 10.5625 
Q 46.625 17.71875 46.78125 32.671875 
M 30.90625 69.390625 
Q 23.96875 69.390625 20.28125 64.328125 
Q 16.609375 59.28125 16.609375 49.8125 
Q 16.609375 40.328125 20.28125 35.25 
Q 23.96875 30.171875 30.90625 30.171875 
Q 37.84375 30.171875 41.53125 35.078125 
Q 45.21875 39.984375 45.21875 49.21875 
Q 45.21875 58.9375 41.5 64.15625 
Q 37.796875 69.390625 30.90625 69.390625 
" id="BitstreamVeraSerif-Roman-39"/>
      </defs>
      <g transform="translate(3.6 10.5624482812)scale(0.09163 -0.09163)">
       <use xlink:href="#BitstreamVeraSerif-Roman-39"/>
      </g>
     </g>
    </g>
   </g>
   <g id="line2d_46">
    <path clip-path="url(#pac975476f1)" d="M 13.429959 8.034033 
L 13.988517 18.753998 
L 14.547076 48.166618 
L 15.664193 130.066802 
L 16.222752 161.579685 
L 16.78131 175.215404 
L 17.339869 167.503988 
L 17.898427 140.449777 
L 19.574103 26.057828 
L 20.132661 9.750858 
L 20.69122 14.56065 
L 21.249779 39.237251 
L 22.925454 154.388784 
L 23.484013 173.488449 
L 24.042571 171.882806 
L 24.60113 150.06482 
L 26.276806 36.129107 
L 26.835364 14.823534 
L 27.393923 13.682136 
L 27.952481 32.962497 
L 29.069598 108.991795 
L 29.628157 146.3016 
L 30.186716 170.150711 
L 30.745274 174.544578 
L 31.303833 158.490154 
L 31.862391 126.227736 
L 32.979508 48.505561 
L 33.538067 23.022883 
L 34.096625 16.172147 
L 34.655184 29.65801 
L 35.213743 59.98183 
L 36.33086 137.75792 
L 36.889418 165.427018 
L 37.447977 175.433973 
L 38.006535 165.394325 
L 38.565094 138.057583 
L 39.682211 62.631408 
L 40.24077 33.980778 
L 40.799328 21.929905 
L 41.357887 29.503247 
L 41.916445 54.698729 
L 43.592121 159.636298 
L 44.150679 174.613283 
L 44.709238 170.553424 
L 45.267797 148.721534 
L 46.943472 47.210044 
L 47.502031 30.704772 
L 48.060589 32.529919 
L 48.619148 52.138833 
L 50.294824 153.170877 
L 50.853382 172.256261 
L 51.411941 173.861322 
L 51.970499 157.841485 
L 53.087616 93.626852 
L 53.646175 62.130705 
L 54.204734 42.109051 
L 54.763292 38.618537 
L 55.321851 52.459837 
L 55.880409 80.021399 
L 56.997526 146.470905 
L 57.556085 168.634831 
L 58.114643 175.332359 
L 58.673202 165.148578 
L 59.231761 140.971419 
L 60.348878 78.101053 
L 60.907436 55.638246 
L 61.465995 47.503311 
L 62.024553 55.676537 
L 62.583112 77.978512 
L 64.258788 164.099518 
L 64.817346 175.096407 
L 65.375905 170.494618 
L 65.934463 151.787833 
L 67.610139 70.697657 
L 68.168697 58.785177 
L 68.727256 61.657607 
L 69.285815 78.475902 
L 70.96149 159.054852 
L 71.520049 173.386672 
L 72.078607 173.855881 
L 72.637166 160.684635 
L 74.8714 71.952234 
L 75.429959 70.130614 
L 75.988517 81.51879 
L 76.547076 103.133056 
L 77.664193 153.931306 
L 78.222752 170.521071 
L 78.78131 175.329175 
L 79.339869 167.483819 
L 79.898427 149.311239 
L 81.015544 102.768742 
L 81.574103 86.406466 
L 82.132661 80.695068 
L 82.69122 86.972635 
L 83.249779 103.542321 
L 84.366896 149.15553 
L 84.925454 166.878394 
L 85.484013 175.120514 
L 86.042571 172.136644 
L 86.60113 159.028904 
L 88.276806 101.495231 
L 88.835364 92.842798 
L 89.393923 94.568057 
L 89.952481 106.121824 
L 91.628157 162.870781 
L 92.186716 173.527179 
L 92.745274 174.720433 
L 93.303833 166.493796 
L 94.42095 133.013811 
L 94.979508 116.545751 
L 95.538067 105.98455 
L 96.096625 103.913655 
L 96.655184 110.743179 
L 97.213743 124.664884 
L 98.33086 158.914268 
L 98.889418 170.914362 
L 99.447977 175.427821 
L 100.006535 171.647258 
L 100.565094 160.836216 
L 101.682211 130.900619 
L 102.24077 119.48129 
L 102.799328 114.516073 
L 103.357887 117.149824 
L 103.916445 126.623899 
L 105.592121 167.687911 
L 106.150679 174.549208 
L 106.709238 174.562282 
L 107.267797 168.025879 
L 108.943472 132.678455 
L 109.502031 125.806191 
L 110.060589 124.969358 
L 110.619148 130.278631 
L 111.177706 140.344118 
L 112.294824 164.264905 
L 112.853382 172.449596 
L 113.411941 175.433019 
L 113.970499 172.749121 
L 114.529058 165.317814 
L 115.646175 144.941202 
L 116.204734 137.169972 
L 116.763292 133.733029 
L 117.321851 135.394151 
L 117.880409 141.664557 
L 119.556085 169.541304 
L 120.114643 174.557335 
L 120.673202 175.089907 
L 121.231761 171.24074 
L 122.348878 155.688623 
L 122.907436 147.982214 
L 123.465995 142.901263 
L 124.024553 141.625333 
L 124.583112 144.390411 
L 125.14167 150.468772 
L 126.258788 166.254302 
L 126.817346 172.313535 
L 127.375905 175.258486 
L 127.934463 174.568433 
L 128.493022 170.590392 
L 130.168697 151.89381 
L 130.727256 148.535519 
L 131.285815 148.315441 
L 131.844373 151.228471 
L 132.402932 156.544965 
L 133.520049 169.13278 
L 134.078607 173.573745 
L 134.637166 175.409727 
L 135.195725 174.347978 
L 135.754283 170.766233 
L 137.429959 155.621174 
L 137.988517 153.127693 
L 138.547076 153.183821 
L 139.105634 155.73715 
L 140.222752 165.468928 
L 140.78131 170.439583 
L 141.339869 174.003713 
L 141.898427 175.423825 
L 142.456986 174.460126 
L 143.015544 171.409808 
L 144.69122 158.427148 
L 145.249779 156.162059 
L 145.808337 156.038389 
L 146.366896 158.063469 
L 146.925454 161.76768 
L 148.042571 170.701661 
L 148.60113 173.96258 
L 149.159688 175.399069 
L 149.718247 174.719999 
L 150.276806 172.102562 
L 151.952481 159.887525 
L 152.51104 157.422088 
L 153.069598 156.899991 
L 153.628157 158.436949 
L 154.186716 161.692207 
L 155.862391 173.624716 
L 156.42095 175.323868 
L 156.979508 174.937856 
L 157.538067 172.524616 
L 158.655184 163.998175 
L 159.213743 159.751214 
L 159.772301 156.80136 
L 160.33086 155.820269 
L 160.889418 157.047005 
L 161.447977 160.225709 
L 163.123652 173.157689 
L 163.682211 175.233577 
L 164.24077 175.009486 
L 164.799328 172.453925 
L 165.357887 168.068073 
L 166.475004 157.776493 
L 167.033562 154.174879 
L 167.592121 152.826107 
L 168.150679 154.07624 
L 168.709238 157.676001 
L 170.384914 172.824356 
L 170.943472 175.232596 
L 171.502031 174.851637 
L 172.060589 171.634514 
L 173.177706 159.723793 
L 173.736265 153.655797 
L 174.294824 149.41051 
L 174.853382 148.015304 
L 175.411941 149.852435 
L 175.970499 154.542216 
L 177.646175 172.93663 
L 178.204734 175.366117 
L 178.763292 174.228127 
L 179.321851 169.607862 
L 180.997526 147.094235 
L 181.556085 142.527057 
L 182.114643 141.749382 
L 182.673202 145.019617 
L 183.231761 151.612332 
L 184.348878 167.995974 
L 184.907436 173.663512 
L 185.465995 175.404137 
L 186.024553 172.57187 
L 186.583112 165.625913 
L 188.258788 138.030206 
L 188.817346 133.927974 
L 189.375905 134.832794 
L 189.934463 140.608611 
L 191.610139 169.520576 
L 192.168697 174.772851 
L 192.727256 174.654015 
L 193.285815 168.923588 
L 193.844373 158.737092 
L 194.96149 134.85386 
L 195.520049 126.910368 
L 196.078607 124.589062 
L 196.637166 128.556757 
L 197.195725 137.919336 
L 198.312842 162.842494 
L 198.8714 172.027484 
L 199.429959 175.434033 
L 199.988517 171.92458 
L 200.547076 162.071554 
L 202.222752 121.150033 
L 202.78131 114.88646 
L 203.339869 116.076138 
L 203.898427 124.526944 
L 205.574103 166.967578 
L 206.132661 174.541911 
L 206.69122 174.206816 
L 207.249779 165.719173 
L 208.366896 133.229067 
L 208.925454 117.006629 
L 209.484013 106.280346 
L 210.042571 103.807854 
L 210.60113 110.318913 
L 211.159688 124.274723 
L 212.276806 159.516518 
L 212.835364 171.685296 
L 213.393923 175.362814 
L 213.952481 169.286806 
L 214.51104 154.651164 
L 215.628157 114.726912 
L 216.186716 99.252875 
L 216.745274 92.379725 
L 217.303833 95.94289 
L 217.862391 109.154606 
L 219.538067 166.67267 
L 220.096625 175.029185 
L 220.655184 172.359386 
L 221.213743 158.98742 
L 222.889418 94.187104 
L 223.447977 82.372265 
L 224.006535 82.064095 
L 224.565094 93.456054 
L 225.682211 137.80868 
L 226.24077 159.430815 
L 226.799328 172.913876 
L 227.357887 174.529496 
L 227.916445 163.518189 
L 228.475004 142.342298 
L 229.592121 91.34719 
L 230.150679 74.28757 
L 230.709238 69.329905 
L 231.267797 77.842905 
L 231.826355 97.765276 
L 232.943472 150.015396 
L 233.502031 168.819388 
L 234.060589 175.426766 
L 234.619148 167.823535 
L 235.177706 147.608967 
L 236.853382 68.522888 
L 237.411941 58.335456 
L 237.970499 62.992195 
L 238.529058 81.413362 
L 240.204734 162.660482 
L 240.763292 174.745231 
L 241.321851 171.483572 
L 241.880409 153.383722 
L 243.556085 65.350368 
L 244.114643 49.5922 
L 244.673202 49.558619 
L 245.231761 65.359704 
L 246.348878 125.540653 
L 246.907436 154.47518 
L 247.465995 172.266889 
L 248.024553 174.108037 
L 248.583112 159.230553 
L 249.14167 131.153543 
L 250.258788 64.904092 
L 250.817346 43.501222 
L 251.375905 38.140033 
L 251.934463 50.279586 
L 252.493022 76.898969 
L 253.610139 144.428297 
L 254.168697 167.879951 
L 254.727256 175.364053 
L 255.285815 164.705807 
L 255.844373 138.371587 
L 256.96149 67.175076 
L 257.520049 40.332798 
L 258.078607 29.245982 
L 258.637166 36.822135 
L 259.195725 61.200514 
L 260.8714 161.590565 
L 261.429959 175.000311 
L 261.988517 169.388202 
L 262.547076 145.965162 
L 264.222752 40.213326 
L 264.78131 23.271006 
L 265.339869 25.576021 
L 265.898427 46.604684 
L 267.574103 153.527223 
L 268.132661 172.866142 
L 268.69122 172.907257 
L 269.249779 153.457707 
L 270.366896 79.144591 
L 270.925454 43.120346 
L 271.484013 20.474264 
L 272.042571 17.038194 
L 272.60113 33.742963 
L 273.159688 66.352573 
L 274.276806 143.937489 
L 274.835364 168.924233 
L 275.393923 174.968352 
L 275.952481 160.388492 
L 276.51104 128.793278 
L 277.628157 48.88586 
L 278.186716 20.966606 
L 278.745274 11.587444 
L 279.303833 23.184248 
L 279.862391 52.817983 
L 280.979508 133.177147 
L 281.538067 163.256156 
L 282.096625 175.372839 
L 282.655184 166.341925 
L 283.213743 138.398513 
L 284.889418 24.705791 
L 285.447977 9.464297 
L 286.006535 15.40403 
L 286.565094 41.020157 
L 288.24077 156.060305 
L 288.799328 174.03196 
L 289.357887 170.973668 
L 289.916445 147.64232 
L 291.592121 31.500113 
L 292.150679 10.758385 
L 292.709238 10.758385 
L 293.267797 31.500113 
L 294.384914 109.995812 
L 294.943472 147.64232 
L 295.502031 170.973668 
L 296.060589 174.03196 
L 296.619148 156.060305 
L 297.177706 121.692355 
L 298.294824 41.020157 
L 298.853382 15.40403 
L 299.411941 9.464297 
L 299.970499 24.705791 
L 300.529058 57.207695 
L 301.646175 138.398513 
L 302.204734 166.341925 
L 302.763292 175.372839 
L 303.321851 163.256156 
L 303.880409 133.177147 
L 304.997526 52.817983 
L 305.556085 23.184248 
L 306.114643 11.587444 
L 306.673202 20.966606 
L 307.231761 48.88586 
L 308.907436 160.388492 
L 309.465995 174.968352 
L 310.024553 168.924233 
L 310.583112 143.937489 
L 312.258788 33.742963 
L 312.817346 17.038194 
L 313.375905 20.474264 
L 313.934463 43.120346 
L 315.610139 153.457707 
L 316.168697 172.907257 
L 316.727256 172.866142 
L 317.285815 153.527223 
L 319.520049 25.576021 
L 320.078607 23.271006 
L 320.637166 40.213326 
L 321.195725 72.014458 
L 322.312842 145.965162 
L 322.8714 169.388202 
L 323.429959 175.000311 
L 323.988517 161.590565 
L 324.547076 132.80717 
L 325.664193 61.200514 
L 326.222752 36.822135 
L 326.78131 29.245982 
L 327.339869 40.332798 
L 327.898427 67.175076 
L 329.015544 138.371587 
L 329.574103 164.705807 
L 330.132661 175.364053 
L 330.69122 167.879951 
L 331.249779 144.428297 
L 332.925454 50.279586 
L 333.484013 38.140033 
L 334.042571 43.501222 
L 334.60113 64.904092 
L 336.276806 159.230553 
L 336.835364 174.108037 
L 337.393923 172.266889 
L 337.952481 154.47518 
L 339.628157 65.359704 
L 340.186716 49.558619 
L 340.745274 49.5922 
L 341.303833 65.350368 
L 342.42095 124.772733 
L 342.979508 153.383722 
L 343.538067 171.483572 
L 344.096625 174.745231 
L 344.655184 162.660482 
L 345.213743 138.613899 
L 346.33086 81.413362 
L 346.889418 62.992195 
L 347.447977 58.335456 
L 348.006535 68.522888 
L 348.565094 90.865771 
L 349.682211 147.608967 
L 350.24077 167.823535 
L 350.799328 175.426766 
L 351.357887 168.819388 
L 351.916445 150.015396 
L 353.033562 97.765276 
L 353.592121 77.842905 
L 354.150679 69.329905 
L 354.709238 74.28757 
L 355.267797 91.34719 
L 356.943472 163.518189 
L 357.502031 174.529496 
L 358.060589 172.913876 
L 358.619148 159.430815 
L 360.294824 93.456054 
L 360.853382 82.064095 
L 361.411941 82.372265 
L 361.970499 94.187104 
L 363.087616 137.98236 
L 363.646175 158.98742 
L 364.204734 172.359386 
L 364.763292 175.029185 
L 365.321851 166.67267 
L 365.880409 149.731994 
L 366.997526 109.154606 
L 367.556085 95.94289 
L 368.114643 92.379725 
L 368.673202 99.252875 
L 369.231761 114.726912 
L 370.348878 154.651164 
L 370.907436 169.286806 
L 371.465995 175.362814 
L 372.024553 171.685296 
L 372.583112 159.516518 
L 374.258788 110.318913 
L 374.817346 103.807854 
L 375.375905 106.280346 
L 375.934463 117.006629 
L 377.610139 165.719173 
L 378.168697 174.206816 
L 378.727256 174.541911 
L 379.285815 166.967578 
L 381.520049 116.076138 
L 382.078607 114.88646 
L 382.637166 121.150033 
L 383.195725 133.219352 
L 384.312842 162.071554 
L 384.8714 171.92458 
L 385.429959 175.434033 
L 385.988517 172.027484 
L 386.547076 162.842494 
L 387.664193 137.919336 
L 388.222752 128.556757 
L 388.78131 124.589062 
L 389.339869 126.910368 
L 389.898427 134.85386 
L 391.574103 168.923588 
L 392.132661 174.654015 
L 392.69122 174.772851 
L 393.249779 169.520576 
L 395.484013 134.832794 
L 396.042571 133.927974 
L 396.60113 138.030206 
L 397.159688 146.067223 
L 398.276806 165.625913 
L 398.835364 172.57187 
L 399.393923 175.404137 
L 399.952481 173.663512 
L 400.51104 167.995974 
L 402.186716 145.019617 
L 402.745274 141.749382 
L 403.303833 142.527057 
L 403.862391 147.094235 
L 405.538067 169.607862 
L 406.096625 174.228127 
L 406.655184 175.366117 
L 407.213743 172.93663 
L 407.772301 167.689798 
L 408.889418 154.542216 
L 409.447977 149.852435 
L 410.006535 148.015304 
L 410.565094 149.41051 
L 411.123652 153.655797 
L 412.799328 171.634514 
L 413.357887 174.851637 
L 413.916445 175.232596 
L 414.475004 172.824356 
L 415.033562 168.3074 
L 416.150679 157.676001 
L 416.709238 154.07624 
L 417.267797 152.826107 
L 417.826355 154.174879 
L 418.384914 157.776493 
L 420.060589 172.453925 
L 420.619148 175.009486 
L 421.177706 175.233577 
L 421.736265 173.157689 
L 422.294824 169.324222 
L 423.411941 160.225709 
L 423.970499 157.047005 
L 424.529058 155.820269 
L 425.087616 156.80136 
L 425.646175 159.751214 
L 427.321851 172.524616 
L 427.880409 174.937856 
L 428.438968 175.323868 
L 428.997526 173.624716 
L 429.556085 170.241648 
L 430.673202 161.692207 
L 431.231761 158.436949 
L 431.790319 156.899991 
L 432.348878 157.422088 
L 432.907436 159.887525 
L 435.14167 174.719999 
L 435.700229 175.399069 
L 436.258788 173.96258 
L 436.817346 170.701661 
L 438.493022 158.063469 
L 439.05158 156.038389 
L 439.610139 156.162059 
L 440.168697 158.427148 
L 441.285815 167.026464 
L 441.844373 171.409808 
L 442.402932 174.460126 
L 442.96149 175.423825 
L 443.520049 174.003713 
L 444.078607 170.439583 
L 445.754283 155.73715 
L 446.312842 153.183821 
L 446.8714 153.127693 
L 447.429959 155.621174 
L 447.988517 160.122751 
L 449.105634 170.766233 
L 449.664193 174.347978 
L 450.222752 175.409727 
L 450.78131 173.573745 
L 451.339869 169.13278 
L 453.015544 151.228471 
L 453.574103 148.315441 
L 454.132661 148.535519 
L 454.69122 151.89381 
L 455.808337 164.424991 
L 456.366896 170.590392 
L 456.925454 174.568433 
L 457.484013 175.258486 
L 458.042571 172.313535 
L 458.60113 166.254302 
L 459.718247 150.468772 
L 460.276806 144.390411 
L 460.835364 141.625333 
L 461.393923 142.901263 
L 461.952481 147.982214 
L 463.628157 171.24074 
L 464.186716 175.089907 
L 464.745274 174.557335 
L 465.303833 169.541304 
L 466.42095 150.965019 
L 466.979508 141.664557 
L 467.538067 135.394151 
L 468.096625 133.733029 
L 468.655184 137.169972 
L 469.213743 144.941202 
L 470.33086 165.317814 
L 470.889418 172.749121 
L 471.447977 175.433019 
L 472.006535 172.449596 
L 472.565094 164.264905 
L 474.24077 130.278631 
L 474.799328 124.969358 
L 475.357887 125.806191 
L 475.916445 132.678455 
L 477.592121 168.025879 
L 478.150679 174.562282 
L 478.709238 174.549208 
L 479.267797 167.687911 
L 479.826355 155.399285 
L 480.943472 126.623899 
L 481.502031 117.149824 
L 482.060589 114.516073 
L 482.619148 119.48129 
L 483.177706 130.900619 
L 484.294824 160.836216 
L 484.853382 171.647258 
L 485.411941 175.427821 
L 485.970499 170.914362 
L 486.529058 158.914268 
L 488.204734 110.743179 
L 488.763292 103.913655 
L 489.321851 105.98455 
L 489.880409 116.545751 
L 491.556085 166.493796 
L 492.114643 174.720433 
L 492.673202 173.527179 
L 493.231761 162.870781 
L 495.465995 94.568057 
L 496.024553 92.842798 
L 496.583112 101.495231 
L 497.14167 118.435783 
L 498.258788 159.028904 
L 498.817346 172.136644 
L 499.375905 175.120514 
L 499.934463 166.878394 
L 500.493022 149.15553 
L 501.610139 103.542321 
L 502.168697 86.972635 
L 502.727256 80.695068 
L 503.285815 86.406466 
L 503.844373 102.768742 
L 505.520049 167.483819 
L 506.078607 175.329175 
L 506.637166 170.521071 
L 507.195725 153.931306 
L 508.8714 81.51879 
L 509.429959 70.130614 
L 509.988517 71.952234 
L 510.547076 86.633781 
L 512.222752 160.684635 
L 512.78131 173.855881 
L 513.339869 173.386672 
L 513.898427 159.054852 
L 515.015544 104.889669 
L 515.574103 78.475902 
L 516.132661 61.657607 
L 516.69122 58.785177 
L 517.249779 70.697657 
L 517.808337 94.451744 
L 518.925454 151.787833 
L 519.484013 170.494618 
L 520.042571 175.096407 
L 520.60113 164.099518 
L 521.159688 139.995514 
L 522.276806 77.978512 
L 522.835364 55.676537 
L 523.393923 47.503311 
L 523.952481 55.638246 
L 524.51104 78.101053 
L 525.628157 140.971419 
L 526.186716 165.148578 
L 526.745274 175.332359 
L 527.303833 168.634831 
L 527.862391 146.470905 
L 529.538067 52.459837 
L 530.096625 38.618537 
L 530.655184 42.109051 
L 531.213743 62.130705 
L 532.889418 157.841485 
L 533.447977 173.861322 
L 534.006535 172.256261 
L 534.565094 153.170877 
L 536.24077 52.138833 
L 536.799328 32.529919 
L 537.357887 30.704772 
L 537.916445 47.210044 
L 538.475004 77.887898 
L 539.592121 148.721534 
L 540.150679 170.553424 
L 540.709238 174.613283 
L 541.267797 159.636298 
L 541.826355 129.240316 
L 542.943472 54.698729 
L 543.502031 29.503247 
L 544.060589 21.929905 
L 544.619148 33.980778 
L 545.177706 62.631408 
L 546.294824 138.057583 
L 546.853382 165.394325 
L 547.411941 175.433973 
L 547.970499 165.427018 
L 548.529058 137.75792 
L 550.204734 29.65801 
L 550.763292 16.172147 
L 551.321851 23.022883 
L 551.880409 48.505561 
L 553.556085 158.490154 
L 554.114643 174.544578 
L 554.673202 170.150711 
L 555.231761 146.3016 
L 556.907436 32.962497 
L 557.465995 13.682136 
L 558.024553 14.823534 
L 558.583112 36.129107 
L 560.258788 150.06482 
L 560.817346 171.882806 
L 561.375905 173.488449 
L 561.934463 154.388784 
L 562.493022 119.404771 
L 563.610139 39.237251 
L 564.168697 14.56065 
L 564.727256 9.750858 
L 565.285815 26.057828 
L 565.844373 59.317676 
L 566.96149 140.449777 
L 567.520049 167.503988 
L 568.078607 175.215404 
L 568.637166 161.579685 
L 569.195725 130.066802 
L 570.312842 48.166618 
L 570.8714 18.753998 
L 571.429959 8.034033 
L 571.429959 8.034033 
" style="fill:none;stroke:#cccccc;stroke-linecap:square;stroke-width:1.2;"/>
   </g>
   <g id="line2d_47">
    <path clip-path="url(#pac975476f1)" d="M 13.429959 91.734033 
L 16.78131 91.839933 
L 20.132661 92.157032 
L 23.484013 92.683523 
L 26.835364 93.416409 
L 30.186716 94.351518 
L 34.096625 95.690899 
L 38.006535 97.287856 
L 41.916445 99.130016 
L 45.826355 101.203106 
L 50.294824 103.834438 
L 54.763292 106.719733 
L 59.790319 110.232814 
L 65.375905 114.414989 
L 72.078607 119.730367 
L 81.574103 127.589008 
L 95.538067 139.154002 
L 102.24077 144.416487 
L 107.826355 148.537783 
L 112.853382 151.983845 
L 117.321851 154.800558 
L 121.790319 157.355549 
L 125.700229 159.35608 
L 129.610139 161.120892 
L 133.520049 162.636312 
L 137.429959 163.890598 
L 140.78131 164.750436 
L 144.132661 165.406351 
L 147.484013 165.854607 
L 150.835364 166.092654 
L 154.186716 166.119135 
L 157.538067 165.933899 
L 160.889418 165.538003 
L 164.24077 164.933699 
L 167.592121 164.124428 
L 170.943472 163.114797 
L 174.853382 161.691395 
L 178.763292 160.01418 
L 182.673202 158.096147 
L 187.14167 155.628378 
L 191.610139 152.89051 
L 196.637166 149.522147 
L 201.664193 145.890196 
L 207.808337 141.161243 
L 215.069598 135.278506 
L 240.204734 114.630687 
L 246.348878 110.030931 
L 251.375905 106.532502 
L 255.844373 103.66225 
L 260.312842 101.047702 
L 264.222752 98.990595 
L 268.132661 97.165498 
L 272.042571 95.586552 
L 275.952481 94.265991 
L 279.303833 93.347547 
L 282.655184 92.631717 
L 286.006535 92.122577 
L 289.357887 91.823026 
L 292.709238 91.734769 
L 296.060589 91.858309 
L 299.411941 92.192942 
L 302.763292 92.736764 
L 306.114643 93.486677 
L 309.465995 94.438413 
L 313.375905 95.79656 
L 317.285815 97.411466 
L 321.195725 99.270616 
L 325.105634 101.359606 
L 329.574103 104.00762 
L 334.042571 106.907843 
L 339.069598 110.435436 
L 344.655184 114.630687 
L 351.357887 119.957242 
L 360.853382 127.822848 
L 374.817346 139.378764 
L 381.520049 144.628922 
L 387.105634 148.736238 
L 392.132661 152.167031 
L 396.60113 154.968195 
L 401.069598 157.505941 
L 404.979508 159.490128 
L 408.889418 161.237557 
L 412.799328 162.734691 
L 416.709238 163.969928 
L 420.060589 164.812944 
L 423.411941 165.45168 
L 426.763292 165.8825 
L 430.114643 166.102951 
L 433.465995 166.111778 
L 436.817346 165.908931 
L 440.168697 165.495564 
L 443.520049 164.874032 
L 446.8714 164.047873 
L 450.78131 162.831733 
L 454.69122 161.352945 
L 458.60113 159.622967 
L 462.51104 157.655203 
L 466.979508 155.134802 
L 471.447977 152.349297 
L 476.475004 148.93391 
L 482.060589 144.840735 
L 488.204734 140.050536 
L 496.024553 133.659096 
L 516.69122 116.596399 
L 522.835364 111.873829 
L 528.42095 107.861311 
L 533.447977 104.533052 
L 537.916445 101.835627 
L 542.384914 99.412389 
L 546.294824 97.536322 
L 550.204734 95.903533 
L 554.114643 94.526673 
L 558.024553 93.416409 
L 561.375905 92.683523 
L 564.727256 92.157032 
L 568.078607 91.839933 
L 571.429959 91.734033 
L 571.429959 91.734033 
" style="fill:none;stroke:#ff0000;stroke-linecap:square;stroke-width:1.2;"/>
   </g>
   <g id="line2d_48">
    <path clip-path="url(#pac975476f1)" d="M 13.429959 128.934033 
L 571.429959 128.934033 
" style="fill:none;stroke:#000000;stroke-linecap:square;stroke-width:1.2;"/>
   </g>
   <g id="patch_3">
    <path d="M 13.429959 175.434033 
L 571.429959 175.434033 
" style="fill:none;stroke:#000000;stroke-linecap:square;stroke-linejoin:miter;"/>
   </g>
   <g id="patch_4">
    <path d="M 13.429959 175.434033 
L 13.429959 8.034033 
" style="fill:none;stroke:#000000;stroke-linecap:square;stroke-linejoin:miter;"/>
   </g>
   <g id="patch_5">
    <path d="M 13.429959 8.034033 
L 571.429959 8.034033 
" style="fill:none;stroke:#000000;stroke-linecap:square;stroke-linejoin:miter;"/>
   </g>
   <g id="patch_6">
    <path d="M 571.429959 175.434033 
L 571.429959 8.034033 
" style="fill:none;stroke:#000000;stroke-linecap:square;stroke-linejoin:miter;"/>
   </g>
   <g id="legend_1">
    <g id="patch_7">
     <path d="M 423.375271 60.210595 
L 566.429959 60.210595 
L 566.429959 13.034033 
L 423.375271 13.034033 
z
" style="fill:#ffffff;stroke:#000000;stroke-linejoin:miter;"/>
    </g>
    <g id="line2d_49">
     <path d="M 430.375271 21.13247 
L 444.375271 21.13247 
" style="fill:none;stroke:#cccccc;stroke-linecap:square;stroke-width:1.2;"/>
    </g>
    <g id="line2d_50"/>
    <g id="text_16">
     <!-- Instantaneous Power -->
     <defs>
      <path d="M 30.078125 3.421875 
Q 37.3125 3.421875 40.984375 9.125 
Q 44.671875 14.84375 44.671875 25.984375 
Q 44.671875 37.109375 40.984375 42.796875 
Q 37.3125 48.484375 30.078125 48.484375 
Q 22.859375 48.484375 19.171875 42.796875 
Q 15.484375 37.109375 15.484375 25.984375 
Q 15.484375 14.84375 19.1875 9.125 
Q 22.90625 3.421875 30.078125 3.421875 
M 30.078125 -1.421875 
Q 18.75 -1.421875 11.859375 6.078125 
Q 4.984375 13.578125 4.984375 25.984375 
Q 4.984375 38.375 11.84375 45.84375 
Q 18.703125 53.328125 30.078125 53.328125 
Q 41.453125 53.328125 48.3125 45.84375 
Q 55.171875 38.375 55.171875 25.984375 
Q 55.171875 13.578125 48.3125 6.078125 
Q 41.453125 -1.421875 30.078125 -1.421875 
" id="BitstreamVeraSerif-Roman-6f"/>
      <path d="M 10.796875 46.6875 
L 2.875 46.6875 
L 2.875 51.90625 
L 10.796875 51.90625 
L 10.796875 68.015625 
L 19.828125 68.015625 
L 19.828125 51.90625 
L 36.71875 51.90625 
L 36.71875 46.6875 
L 19.828125 46.6875 
L 19.828125 13.71875 
Q 19.828125 7.125 21.09375 5.265625 
Q 22.359375 3.421875 25.78125 3.421875 
Q 29.296875 3.421875 30.90625 5.484375 
Q 32.515625 7.5625 32.625 12.203125 
L 39.40625 12.203125 
Q 39.015625 5.125 35.546875 1.84375 
Q 32.078125 -1.421875 25 -1.421875 
Q 17.234375 -1.421875 14.015625 2.015625 
Q 10.796875 5.46875 10.796875 13.71875 
z
" id="BitstreamVeraSerif-Roman-74"/>
      <path d="M 24.703125 5.171875 
L 33.984375 5.171875 
L 33.984375 0 
L 5.515625 0 
L 5.515625 5.171875 
L 14.796875 5.171875 
L 14.796875 67.671875 
L 5.515625 67.671875 
L 5.515625 72.90625 
L 33.984375 72.90625 
L 33.984375 67.671875 
L 24.703125 67.671875 
z
" id="BitstreamVeraSerif-Roman-49"/>
      <path d="M 35.40625 51.90625 
L 52.203125 51.90625 
L 52.203125 5.171875 
L 60.6875 5.171875 
L 60.6875 0 
L 43.21875 0 
L 43.21875 9.1875 
Q 40.71875 4 36.765625 1.28125 
Q 32.8125 -1.421875 27.59375 -1.421875 
Q 18.953125 -1.421875 14.875 3.484375 
Q 10.796875 8.40625 10.796875 18.890625 
L 10.796875 46.6875 
L 2.6875 46.6875 
L 2.6875 51.90625 
L 19.828125 51.90625 
L 19.828125 21.6875 
Q 19.828125 12.203125 22.140625 8.6875 
Q 24.46875 5.171875 30.421875 5.171875 
Q 36.671875 5.171875 39.9375 9.765625 
Q 43.21875 14.359375 43.21875 23.09375 
L 43.21875 46.6875 
L 35.40625 46.6875 
z
" id="BitstreamVeraSerif-Roman-75"/>
      <path d="M 47.796875 52 
L 47.796875 39.015625 
L 42.625 39.015625 
Q 42.390625 42.875 40.484375 44.78125 
Q 38.578125 46.6875 34.90625 46.6875 
Q 28.265625 46.6875 24.71875 42.09375 
Q 21.1875 37.5 21.1875 28.90625 
L 21.1875 5.171875 
L 31.59375 5.171875 
L 31.59375 0 
L 4.109375 0 
L 4.109375 5.171875 
L 12.203125 5.171875 
L 12.203125 46.78125 
L 3.609375 46.78125 
L 3.609375 51.90625 
L 21.1875 51.90625 
L 21.1875 42.671875 
Q 23.828125 48.09375 27.96875 50.703125 
Q 32.125 53.328125 38.09375 53.328125 
Q 40.28125 53.328125 42.703125 52.984375 
Q 45.125 52.640625 47.796875 52 
" id="BitstreamVeraSerif-Roman-72"/>
      <path d="M 54.203125 25 
L 15.484375 25 
L 15.484375 24.609375 
Q 15.484375 14.109375 19.4375 8.765625 
Q 23.390625 3.421875 31.109375 3.421875 
Q 37.015625 3.421875 40.796875 6.515625 
Q 44.578125 9.625 46.09375 15.71875 
L 53.328125 15.71875 
Q 51.171875 7.171875 45.375 2.875 
Q 39.59375 -1.421875 30.171875 -1.421875 
Q 18.796875 -1.421875 11.890625 6.078125 
Q 4.984375 13.578125 4.984375 25.984375 
Q 4.984375 38.28125 11.765625 45.796875 
Q 18.5625 53.328125 29.59375 53.328125 
Q 41.359375 53.328125 47.65625 46.0625 
Q 53.953125 38.8125 54.203125 25 
M 43.609375 30.171875 
Q 43.3125 39.265625 39.765625 43.875 
Q 36.234375 48.484375 29.59375 48.484375 
Q 23.390625 48.484375 19.828125 43.84375 
Q 16.265625 39.203125 15.484375 30.171875 
z
" id="BitstreamVeraSerif-Roman-65"/>
      <path d="M 4.109375 0 
L 4.109375 5.171875 
L 12.203125 5.171875 
L 12.203125 46.6875 
L 3.609375 46.6875 
L 3.609375 51.90625 
L 21.1875 51.90625 
L 21.1875 42.671875 
Q 23.6875 47.953125 27.65625 50.640625 
Q 31.640625 53.328125 36.921875 53.328125 
Q 45.515625 53.328125 49.5625 48.390625 
Q 53.609375 43.453125 53.609375 33.015625 
L 53.609375 5.171875 
L 61.625 5.171875 
L 61.625 0 
L 36.8125 0 
L 36.8125 5.171875 
L 44.578125 5.171875 
L 44.578125 30.171875 
Q 44.578125 39.703125 42.234375 43.234375 
Q 39.890625 46.78125 33.984375 46.78125 
Q 27.734375 46.78125 24.453125 42.203125 
Q 21.1875 37.640625 21.1875 28.90625 
L 21.1875 5.171875 
L 29 5.171875 
L 29 0 
z
" id="BitstreamVeraSerif-Roman-6e"/>
      <path d="M 5.609375 2.875 
L 5.609375 14.984375 
L 10.796875 14.984375 
Q 10.984375 9.1875 14.421875 6.296875 
Q 17.875 3.421875 24.609375 3.421875 
Q 30.671875 3.421875 33.84375 5.6875 
Q 37.015625 7.953125 37.015625 12.3125 
Q 37.015625 15.71875 34.6875 17.8125 
Q 32.375 19.921875 24.90625 22.3125 
L 18.40625 24.515625 
Q 11.71875 26.65625 8.71875 29.875 
Q 5.71875 33.109375 5.71875 38.09375 
Q 5.71875 45.21875 10.9375 49.265625 
Q 16.15625 53.328125 25.390625 53.328125 
Q 29.5 53.328125 34.03125 52.25 
Q 38.578125 51.171875 43.40625 49.125 
L 43.40625 37.796875 
L 38.234375 37.796875 
Q 38.03125 42.828125 34.703125 45.65625 
Q 31.390625 48.484375 25.6875 48.484375 
Q 20.015625 48.484375 17.109375 46.484375 
Q 14.203125 44.484375 14.203125 40.484375 
Q 14.203125 37.203125 16.40625 35.21875 
Q 18.609375 33.25 25.203125 31.203125 
L 32.328125 29 
Q 39.703125 26.703125 42.9375 23.265625 
Q 46.1875 19.828125 46.1875 14.40625 
Q 46.1875 7.03125 40.546875 2.796875 
Q 34.90625 -1.421875 25 -1.421875 
Q 19.96875 -1.421875 15.1875 -0.34375 
Q 10.40625 0.734375 5.609375 2.875 
" id="BitstreamVeraSerif-Roman-73"/>
      <path d="M 48 51.90625 
L 61.28125 11.375 
L 73 46.6875 
L 65.484375 46.6875 
L 65.484375 51.90625 
L 84.28125 51.90625 
L 84.28125 46.6875 
L 78.515625 46.6875 
L 63.09375 0 
L 55.609375 0 
L 42.828125 38.8125 
L 29.984375 0 
L 22.796875 0 
L 7.421875 46.6875 
L 1.609375 46.6875 
L 1.609375 51.90625 
L 25.09375 51.90625 
L 25.09375 46.6875 
L 16.703125 46.6875 
L 28.328125 11.375 
L 41.703125 51.90625 
z
" id="BitstreamVeraSerif-Roman-77"/>
      <path d="M 24.703125 37.109375 
L 37.59375 37.109375 
Q 44.875 37.109375 48.671875 41.03125 
Q 52.484375 44.96875 52.484375 52.390625 
Q 52.484375 59.859375 48.671875 63.765625 
Q 44.875 67.671875 37.59375 67.671875 
L 24.703125 67.671875 
z
M 5.515625 0 
L 5.515625 5.171875 
L 14.796875 5.171875 
L 14.796875 67.671875 
L 5.515625 67.671875 
L 5.515625 72.90625 
L 39.984375 72.90625 
Q 50.921875 72.90625 57.3125 67.359375 
Q 63.71875 61.8125 63.71875 52.390625 
Q 63.71875 43.015625 57.3125 37.453125 
Q 50.921875 31.890625 39.984375 31.890625 
L 24.703125 31.890625 
L 24.703125 5.171875 
L 35.984375 5.171875 
L 35.984375 0 
z
" id="BitstreamVeraSerif-Roman-50"/>
      <path id="BitstreamVeraSerif-Roman-20"/>
      <path d="M 39.796875 16.3125 
L 39.796875 27.296875 
L 28.21875 27.296875 
Q 21.53125 27.296875 18.25 24.40625 
Q 14.984375 21.53125 14.984375 15.578125 
Q 14.984375 10.15625 18.296875 6.984375 
Q 21.625 3.8125 27.296875 3.8125 
Q 32.90625 3.8125 36.34375 7.28125 
Q 39.796875 10.75 39.796875 16.3125 
M 48.78125 32.421875 
L 48.78125 5.171875 
L 56.78125 5.171875 
L 56.78125 0 
L 39.796875 0 
L 39.796875 5.609375 
Q 36.8125 2 32.90625 0.28125 
Q 29 -1.421875 23.78125 -1.421875 
Q 15.140625 -1.421875 10.0625 3.171875 
Q 4.984375 7.765625 4.984375 15.578125 
Q 4.984375 23.640625 10.796875 28.078125 
Q 16.609375 32.515625 27.203125 32.515625 
L 39.796875 32.515625 
L 39.796875 36.078125 
Q 39.796875 42 36.203125 45.234375 
Q 32.625 48.484375 26.125 48.484375 
Q 20.75 48.484375 17.578125 46.046875 
Q 14.40625 43.609375 13.625 38.8125 
L 8.984375 38.8125 
L 8.984375 49.3125 
Q 13.671875 51.3125 18.09375 52.3125 
Q 22.515625 53.328125 26.703125 53.328125 
Q 37.5 53.328125 43.140625 47.96875 
Q 48.78125 42.625 48.78125 32.421875 
" id="BitstreamVeraSerif-Roman-61"/>
     </defs>
     <g transform="translate(455.37527125 24.6324704687)scale(0.1 -0.1)">
      <use xlink:href="#BitstreamVeraSerif-Roman-49"/>
      <use x="39.501953125" xlink:href="#BitstreamVeraSerif-Roman-6e"/>
      <use x="103.90625" xlink:href="#BitstreamVeraSerif-Roman-73"/>
      <use x="155.224609375" xlink:href="#BitstreamVeraSerif-Roman-74"/>
      <use x="195.41015625" xlink:href="#BitstreamVeraSerif-Roman-61"/>
      <use x="255.029296875" xlink:href="#BitstreamVeraSerif-Roman-6e"/>
      <use x="319.43359375" xlink:href="#BitstreamVeraSerif-Roman-74"/>
      <use x="359.619140625" xlink:href="#BitstreamVeraSerif-Roman-61"/>
      <use x="419.23828125" xlink:href="#BitstreamVeraSerif-Roman-6e"/>
      <use x="483.642578125" xlink:href="#BitstreamVeraSerif-Roman-65"/>
      <use x="542.822265625" xlink:href="#BitstreamVeraSerif-Roman-6f"/>
      <use x="603.02734375" xlink:href="#BitstreamVeraSerif-Roman-75"/>
      <use x="667.431640625" xlink:href="#BitstreamVeraSerif-Roman-73"/>
      <use x="718.75" xlink:href="#BitstreamVeraSerif-Roman-20"/>
      <use x="750.537109375" xlink:href="#BitstreamVeraSerif-Roman-50"/>
      <use x="817.759765625" xlink:href="#BitstreamVeraSerif-Roman-6f"/>
      <use x="877.96484375" xlink:href="#BitstreamVeraSerif-Roman-77"/>
      <use x="963.560546875" xlink:href="#BitstreamVeraSerif-Roman-65"/>
      <use x="1022.740234375" xlink:href="#BitstreamVeraSerif-Roman-72"/>
     </g>
    </g>
    <g id="line2d_51">
     <path d="M 430.375271 35.810595 
L 444.375271 35.810595 
" style="fill:none;stroke:#ff0000;stroke-linecap:square;stroke-width:1.2;"/>
    </g>
    <g id="line2d_52"/>
    <g id="text_17">
     <!-- Beat signal -->
     <defs>
      <path d="M 20.515625 5.171875 
L 29 5.171875 
L 29 0 
L 2.875 0 
L 2.875 5.171875 
L 11.53125 5.171875 
L 11.53125 70.796875 
L 2.875 70.796875 
L 2.875 75.984375 
L 20.515625 75.984375 
z
" id="BitstreamVeraSerif-Roman-6c"/>
      <path d="M 24.703125 5.171875 
L 39.3125 5.171875 
Q 48.09375 5.171875 52.140625 8.984375 
Q 56.203125 12.796875 56.203125 21.09375 
Q 56.203125 29.34375 52.171875 33.125 
Q 48.140625 36.921875 39.3125 36.921875 
L 24.703125 36.921875 
z
M 24.703125 42.09375 
L 37.109375 42.09375 
Q 45.125 42.09375 48.796875 45.171875 
Q 52.484375 48.25 52.484375 54.890625 
Q 52.484375 61.578125 48.796875 64.625 
Q 45.125 67.671875 37.109375 67.671875 
L 24.703125 67.671875 
z
M 5.515625 0 
L 5.515625 5.171875 
L 14.796875 5.171875 
L 14.796875 67.671875 
L 5.515625 67.671875 
L 5.515625 72.90625 
L 41.5 72.90625 
Q 52.546875 72.90625 58.125 68.390625 
Q 63.71875 63.875 63.71875 54.890625 
Q 63.71875 48.390625 59.828125 44.53125 
Q 55.953125 40.671875 48.484375 39.796875 
Q 57.765625 38.625 62.578125 33.859375 
Q 67.390625 29.109375 67.390625 21.09375 
Q 67.390625 10.25 60.546875 5.125 
Q 53.71875 0 39.203125 0 
z
" id="BitstreamVeraSerif-Roman-42"/>
      <path d="M 52.484375 46.6875 
L 52.484375 1.125 
Q 52.484375 -10.0625 46.328125 -16.140625 
Q 40.1875 -22.21875 28.8125 -22.21875 
Q 23.6875 -22.21875 19 -21.28125 
Q 14.3125 -20.359375 10.015625 -18.5 
L 10.015625 -7.625 
L 14.703125 -7.625 
Q 15.578125 -12.703125 18.84375 -15.046875 
Q 22.125 -17.390625 28.21875 -17.390625 
Q 36.140625 -17.390625 39.8125 -12.921875 
Q 43.5 -8.453125 43.5 1.125 
L 43.5 8.109375 
Q 40.875 3.21875 36.796875 0.890625 
Q 32.71875 -1.421875 26.703125 -1.421875 
Q 17.140625 -1.421875 11.0625 6.171875 
Q 4.984375 13.765625 4.984375 25.984375 
Q 4.984375 38.1875 11.03125 45.75 
Q 17.09375 53.328125 26.703125 53.328125 
Q 32.71875 53.328125 36.796875 51 
Q 40.875 48.6875 43.5 43.796875 
L 43.5 51.90625 
L 61.078125 51.90625 
L 61.078125 46.6875 
z
M 43.5 28.515625 
Q 43.5 37.84375 39.90625 42.765625 
Q 36.328125 47.703125 29.5 47.703125 
Q 22.5625 47.703125 19.015625 42.234375 
Q 15.484375 36.765625 15.484375 25.984375 
Q 15.484375 15.234375 19.015625 9.71875 
Q 22.5625 4.203125 29.5 4.203125 
Q 36.328125 4.203125 39.90625 9.109375 
Q 43.5 14.015625 43.5 23.390625 
z
" id="BitstreamVeraSerif-Roman-67"/>
      <path d="M 9.71875 68.015625 
Q 9.71875 70.265625 11.34375 71.921875 
Q 12.984375 73.578125 15.28125 73.578125 
Q 17.53125 73.578125 19.15625 71.921875 
Q 20.796875 70.265625 20.796875 68.015625 
Q 20.796875 65.71875 19.1875 64.109375 
Q 17.578125 62.5 15.28125 62.5 
Q 12.984375 62.5 11.34375 64.109375 
Q 9.71875 65.71875 9.71875 68.015625 
M 21.1875 5.171875 
L 29.6875 5.171875 
L 29.6875 0 
L 3.609375 0 
L 3.609375 5.171875 
L 12.203125 5.171875 
L 12.203125 46.6875 
L 3.609375 46.6875 
L 3.609375 51.90625 
L 21.1875 51.90625 
z
" id="BitstreamVeraSerif-Roman-69"/>
     </defs>
     <g transform="translate(455.37527125 39.3105954687)scale(0.1 -0.1)">
      <use xlink:href="#BitstreamVeraSerif-Roman-42"/>
      <use x="73.486328125" xlink:href="#BitstreamVeraSerif-Roman-65"/>
      <use x="132.666015625" xlink:href="#BitstreamVeraSerif-Roman-61"/>
      <use x="192.28515625" xlink:href="#BitstreamVeraSerif-Roman-74"/>
      <use x="232.470703125" xlink:href="#BitstreamVeraSerif-Roman-20"/>
      <use x="264.2578125" xlink:href="#BitstreamVeraSerif-Roman-73"/>
      <use x="315.576171875" xlink:href="#BitstreamVeraSerif-Roman-69"/>
      <use x="347.55859375" xlink:href="#BitstreamVeraSerif-Roman-67"/>
      <use x="411.572265625" xlink:href="#BitstreamVeraSerif-Roman-6e"/>
      <use x="475.9765625" xlink:href="#BitstreamVeraSerif-Roman-61"/>
      <use x="535.595703125" xlink:href="#BitstreamVeraSerif-Roman-6c"/>
     </g>
    </g>
    <g id="line2d_53">
     <path d="M 430.375271 50.630908 
L 444.375271 50.630908 
" style="fill:none;stroke:#000000;stroke-linecap:square;stroke-width:1.2;"/>
    </g>
    <g id="line2d_54"/>
    <g id="text_18">
     <!-- DC-power -->
     <defs>
      <path d="M 24.703125 5.171875 
L 33.796875 5.171875 
Q 48 5.171875 55.59375 13.28125 
Q 63.1875 21.390625 63.1875 36.53125 
Q 63.1875 51.65625 55.609375 59.65625 
Q 48.046875 67.671875 33.796875 67.671875 
L 24.703125 67.671875 
z
M 5.515625 0 
L 5.515625 5.171875 
L 14.796875 5.171875 
L 14.796875 67.671875 
L 5.515625 67.671875 
L 5.515625 72.90625 
L 34.515625 72.90625 
Q 53.375 72.90625 63.890625 63.28125 
Q 74.421875 53.65625 74.421875 36.53125 
Q 74.421875 19.34375 63.875 9.671875 
Q 53.328125 0 34.515625 0 
z
" id="BitstreamVeraSerif-Roman-44"/>
      <path d="M 4.390625 30.609375 
L 29.390625 30.609375 
L 29.390625 23 
L 4.390625 23 
z
" id="BitstreamVeraSerif-Roman-2d"/>
      <path d="M 20.515625 28.515625 
L 20.515625 23.390625 
Q 20.515625 14.015625 24.09375 9.109375 
Q 27.6875 4.203125 34.515625 4.203125 
Q 41.40625 4.203125 44.9375 9.71875 
Q 48.484375 15.234375 48.484375 25.984375 
Q 48.484375 36.765625 44.9375 42.234375 
Q 41.40625 47.703125 34.515625 47.703125 
Q 27.6875 47.703125 24.09375 42.765625 
Q 20.515625 37.84375 20.515625 28.515625 
M 11.53125 46.6875 
L 2.875 46.6875 
L 2.875 51.90625 
L 20.515625 51.90625 
L 20.515625 43.796875 
Q 23.140625 48.6875 27.21875 51 
Q 31.296875 53.328125 37.3125 53.328125 
Q 46.875 53.328125 52.921875 45.75 
Q 58.984375 38.1875 58.984375 25.984375 
Q 58.984375 13.765625 52.921875 6.171875 
Q 46.875 -1.421875 37.3125 -1.421875 
Q 31.296875 -1.421875 27.21875 0.890625 
Q 23.140625 3.21875 20.515625 8.109375 
L 20.515625 -15.578125 
L 29 -15.578125 
L 29 -20.796875 
L 2.875 -20.796875 
L 2.875 -15.578125 
L 11.53125 -15.578125 
z
" id="BitstreamVeraSerif-Roman-70"/>
      <path d="M 70.515625 19.28125 
Q 67.28125 9.078125 59.6875 3.828125 
Q 52.09375 -1.421875 40.484375 -1.421875 
Q 33.34375 -1.421875 27.234375 1.015625 
Q 21.140625 3.46875 16.40625 8.203125 
Q 10.9375 13.671875 8.265625 20.625 
Q 5.609375 27.59375 5.609375 36.375 
Q 5.609375 53.375 15.421875 63.796875 
Q 25.25 74.21875 41.3125 74.21875 
Q 47.265625 74.21875 54 72.65625 
Q 60.75 71.09375 68.5 67.921875 
L 68.5 51.125 
L 62.984375 51.125 
Q 61.1875 60.296875 55.734375 64.640625 
Q 50.296875 69 40.484375 69 
Q 28.8125 69 22.796875 60.71875 
Q 16.796875 52.4375 16.796875 36.375 
Q 16.796875 20.359375 22.796875 12.078125 
Q 28.8125 3.8125 40.484375 3.8125 
Q 48.640625 3.8125 53.90625 7.6875 
Q 59.1875 11.578125 61.53125 19.28125 
z
" id="BitstreamVeraSerif-Roman-43"/>
     </defs>
     <g transform="translate(455.37527125 54.1309079687)scale(0.1 -0.1)">
      <use xlink:href="#BitstreamVeraSerif-Roman-44"/>
      <use x="80.17578125" xlink:href="#BitstreamVeraSerif-Roman-43"/>
      <use x="156.689453125" xlink:href="#BitstreamVeraSerif-Roman-2d"/>
      <use x="190.478515625" xlink:href="#BitstreamVeraSerif-Roman-70"/>
      <use x="254.4921875" xlink:href="#BitstreamVeraSerif-Roman-6f"/>
      <use x="314.697265625" xlink:href="#BitstreamVeraSerif-Roman-77"/>
      <use x="400.29296875" xlink:href="#BitstreamVeraSerif-Roman-65"/>
      <use x="459.47265625" xlink:href="#BitstreamVeraSerif-Roman-72"/>
     </g>
    </g>
   </g>
  </g>
 </g>
 <defs>
  <clipPath id="pac975476f1">
   <rect height="167.4" width="558.0" x="13.42995875" y="8.03403296875"/>
  </clipPath>
 </defs>
</svg>
