<?xml version="1.0" encoding="utf-8" standalone="no"?>
<!DOCTYPE svg PUBLIC "-//W3C//DTD SVG 1.1//EN"
  "http://www.w3.org/Graphics/SVG/1.1/DTD/svg11.dtd">
<!-- Created with matplotlib (http://matplotlib.org/) -->
<svg height="248pt" version="1.1" viewBox="0 0 414 248" width="414pt" xmlns="http://www.w3.org/2000/svg" xmlns:xlink="http://www.w3.org/1999/xlink">
 <defs>
  <style type="text/css">
*{stroke-linecap:butt;stroke-linejoin:round;stroke-miterlimit:100000;}
  </style>
 </defs>
 <g id="figure_1">
  <g id="patch_1">
   <path d="M 0 248.704378 
L 414.657971 248.704378 
L 414.657971 0 
L 0 0 
z
" style="fill:#ffffff;"/>
  </g>
  <g id="axes_1">
   <g id="patch_2">
    <path d="M 37.817971 217.416 
L 411.057971 217.416 
L 411.057971 16.2 
L 37.817971 16.2 
z
" style="fill:#ffffff;"/>
   </g>
   <g id="matplotlib.axis_1">
    <g id="xtick_1">
     <g id="line2d_1">
      <path clip-path="url(#p137ff5276b)" d="M 79.289082 217.416 
L 79.289082 16.2 
" style="fill:none;stroke:#999999;stroke-dasharray:1.000000,3.000000;stroke-dashoffset:0.0;stroke-width:0.25;"/>
     </g>
     <g id="line2d_2">
      <defs>
       <path d="M 0 0 
L 0 -4 
" id="m8886024ef2" style="stroke:#000000;stroke-width:0.5;"/>
      </defs>
      <g>
       <use style="stroke:#000000;stroke-width:0.5;" x="79.2890820486" xlink:href="#m8886024ef2" y="217.416"/>
      </g>
     </g>
     <g id="line2d_3">
      <defs>
       <path d="M 0 0 
L 0 4 
" id="m4d0377929c" style="stroke:#000000;stroke-width:0.5;"/>
      </defs>
      <g>
       <use style="stroke:#000000;stroke-width:0.5;" x="79.2890820486" xlink:href="#m4d0377929c" y="16.2"/>
      </g>
     </g>
     <g id="text_1">
      <!-- −50 -->
      <defs>
       <path d="M 50.296875 72.90625 
L 50.296875 64.890625 
L 16.890625 64.890625 
L 16.890625 44 
Q 19.4375 45.75 22.828125 46.625 
Q 26.21875 47.515625 30.421875 47.515625 
Q 42.234375 47.515625 49.0625 40.96875 
Q 55.90625 34.421875 55.90625 23.09375 
Q 55.90625 11.53125 49 5.046875 
Q 42.09375 -1.421875 29.59375 -1.421875 
Q 24.5625 -1.421875 19.28125 -0.1875 
Q 14.015625 1.03125 8.5 3.515625 
L 8.5 17.671875 
L 14.015625 17.671875 
Q 14.453125 10.75 18.421875 7.078125 
Q 22.40625 3.421875 29.59375 3.421875 
Q 37.3125 3.421875 41.453125 8.5 
Q 45.609375 13.578125 45.609375 23.09375 
Q 45.609375 32.5625 41.484375 37.609375 
Q 37.359375 42.671875 29.59375 42.671875 
Q 25.203125 42.671875 21.84375 41.109375 
Q 18.5 39.546875 15.921875 36.28125 
L 11.71875 36.28125 
L 11.71875 72.90625 
z
" id="BitstreamVeraSerif-Roman-35"/>
       <path d="M 10.59375 35.296875 
L 73.1875 35.296875 
L 73.1875 27.390625 
L 10.59375 27.390625 
z
" id="BitstreamVeraSerif-Roman-2212"/>
       <path d="M 31.78125 3.421875 
Q 39.265625 3.421875 42.96875 11.625 
Q 46.6875 19.828125 46.6875 36.375 
Q 46.6875 52.984375 42.96875 61.1875 
Q 39.265625 69.390625 31.78125 69.390625 
Q 24.3125 69.390625 20.59375 61.1875 
Q 16.890625 52.984375 16.890625 36.375 
Q 16.890625 19.828125 20.59375 11.625 
Q 24.3125 3.421875 31.78125 3.421875 
M 31.78125 -1.421875 
Q 19.921875 -1.421875 13.25 8.53125 
Q 6.59375 18.5 6.59375 36.375 
Q 6.59375 54.296875 13.25 64.25 
Q 19.921875 74.21875 31.78125 74.21875 
Q 43.703125 74.21875 50.34375 64.25 
Q 56.984375 54.296875 56.984375 36.375 
Q 56.984375 18.5 50.34375 8.53125 
Q 43.703125 -1.421875 31.78125 -1.421875 
" id="BitstreamVeraSerif-Roman-30"/>
      </defs>
      <g transform="translate(69.6199694705 228.378448281)scale(0.09163 -0.09163)">
       <use xlink:href="#BitstreamVeraSerif-Roman-2212"/>
       <use x="83.7890625" xlink:href="#BitstreamVeraSerif-Roman-35"/>
       <use x="147.412109375" xlink:href="#BitstreamVeraSerif-Roman-30"/>
      </g>
     </g>
    </g>
    <g id="xtick_2">
     <g id="line2d_4">
      <path clip-path="url(#p137ff5276b)" d="M 131.127971 217.416 
L 131.127971 16.2 
" style="fill:none;stroke:#999999;stroke-dasharray:1.000000,3.000000;stroke-dashoffset:0.0;stroke-width:0.25;"/>
     </g>
     <g id="line2d_5">
      <g>
       <use style="stroke:#000000;stroke-width:0.5;" x="131.127970937" xlink:href="#m8886024ef2" y="217.416"/>
      </g>
     </g>
     <g id="line2d_6">
      <g>
       <use style="stroke:#000000;stroke-width:0.5;" x="131.127970937" xlink:href="#m4d0377929c" y="16.2"/>
      </g>
     </g>
     <g id="text_2">
      <!-- 0 -->
      <g transform="translate(128.212991562 228.378448281)scale(0.09163 -0.09163)">
       <use xlink:href="#BitstreamVeraSerif-Roman-30"/>
      </g>
     </g>
    </g>
    <g id="xtick_3">
     <g id="line2d_7">
      <path clip-path="url(#p137ff5276b)" d="M 182.96686 217.416 
L 182.96686 16.2 
" style="fill:none;stroke:#999999;stroke-dasharray:1.000000,3.000000;stroke-dashoffset:0.0;stroke-width:0.25;"/>
     </g>
     <g id="line2d_8">
      <g>
       <use style="stroke:#000000;stroke-width:0.5;" x="182.966859826" xlink:href="#m8886024ef2" y="217.416"/>
      </g>
     </g>
     <g id="line2d_9">
      <g>
       <use style="stroke:#000000;stroke-width:0.5;" x="182.966859826" xlink:href="#m4d0377929c" y="16.2"/>
      </g>
     </g>
     <g id="text_3">
      <!-- 50 -->
      <g transform="translate(177.136901076 228.378448281)scale(0.09163 -0.09163)">
       <use xlink:href="#BitstreamVeraSerif-Roman-35"/>
       <use x="63.623046875" xlink:href="#BitstreamVeraSerif-Roman-30"/>
      </g>
     </g>
    </g>
    <g id="xtick_4">
     <g id="line2d_10">
      <path clip-path="url(#p137ff5276b)" d="M 234.805749 217.416 
L 234.805749 16.2 
" style="fill:none;stroke:#999999;stroke-dasharray:1.000000,3.000000;stroke-dashoffset:0.0;stroke-width:0.25;"/>
     </g>
     <g id="line2d_11">
      <g>
       <use style="stroke:#000000;stroke-width:0.5;" x="234.805748715" xlink:href="#m8886024ef2" y="217.416"/>
      </g>
     </g>
     <g id="line2d_12">
      <g>
       <use style="stroke:#000000;stroke-width:0.5;" x="234.805748715" xlink:href="#m4d0377929c" y="16.2"/>
      </g>
     </g>
     <g id="text_4">
      <!-- 100 -->
      <defs>
       <path d="M 14.203125 0 
L 14.203125 5.171875 
L 26.90625 5.171875 
L 26.90625 65.828125 
L 12.203125 56.296875 
L 12.203125 62.703125 
L 29.984375 74.21875 
L 36.71875 74.21875 
L 36.71875 5.171875 
L 49.421875 5.171875 
L 49.421875 0 
z
" id="BitstreamVeraSerif-Roman-31"/>
      </defs>
      <g transform="translate(226.06081059 228.378448281)scale(0.09163 -0.09163)">
       <use xlink:href="#BitstreamVeraSerif-Roman-31"/>
       <use x="63.623046875" xlink:href="#BitstreamVeraSerif-Roman-30"/>
       <use x="127.24609375" xlink:href="#BitstreamVeraSerif-Roman-30"/>
      </g>
     </g>
    </g>
    <g id="xtick_5">
     <g id="line2d_13">
      <path clip-path="url(#p137ff5276b)" d="M 286.644638 217.416 
L 286.644638 16.2 
" style="fill:none;stroke:#999999;stroke-dasharray:1.000000,3.000000;stroke-dashoffset:0.0;stroke-width:0.25;"/>
     </g>
     <g id="line2d_14">
      <g>
       <use style="stroke:#000000;stroke-width:0.5;" x="286.644637604" xlink:href="#m8886024ef2" y="217.416"/>
      </g>
     </g>
     <g id="line2d_15">
      <g>
       <use style="stroke:#000000;stroke-width:0.5;" x="286.644637604" xlink:href="#m4d0377929c" y="16.2"/>
      </g>
     </g>
     <g id="text_5">
      <!-- 150 -->
      <g transform="translate(277.899699479 228.378448281)scale(0.09163 -0.09163)">
       <use xlink:href="#BitstreamVeraSerif-Roman-31"/>
       <use x="63.623046875" xlink:href="#BitstreamVeraSerif-Roman-35"/>
       <use x="127.24609375" xlink:href="#BitstreamVeraSerif-Roman-30"/>
      </g>
     </g>
    </g>
    <g id="xtick_6">
     <g id="line2d_16">
      <path clip-path="url(#p137ff5276b)" d="M 338.483526 217.416 
L 338.483526 16.2 
" style="fill:none;stroke:#999999;stroke-dasharray:1.000000,3.000000;stroke-dashoffset:0.0;stroke-width:0.25;"/>
     </g>
     <g id="line2d_17">
      <g>
       <use style="stroke:#000000;stroke-width:0.5;" x="338.483526493" xlink:href="#m8886024ef2" y="217.416"/>
      </g>
     </g>
     <g id="line2d_18">
      <g>
       <use style="stroke:#000000;stroke-width:0.5;" x="338.483526493" xlink:href="#m4d0377929c" y="16.2"/>
      </g>
     </g>
     <g id="text_6">
      <!-- 200 -->
      <defs>
       <path d="M 12.796875 55.515625 
L 7.328125 55.515625 
L 7.328125 68.5 
Q 12.546875 71.296875 17.84375 72.75 
Q 23.140625 74.21875 28.21875 74.21875 
Q 39.59375 74.21875 46.1875 68.703125 
Q 52.78125 63.1875 52.78125 53.71875 
Q 52.78125 43.015625 37.84375 28.125 
Q 36.671875 27 36.078125 26.421875 
L 17.671875 8.015625 
L 48.09375 8.015625 
L 48.09375 17 
L 53.8125 17 
L 53.8125 0 
L 6.78125 0 
L 6.78125 5.328125 
L 28.90625 27.390625 
Q 36.234375 34.71875 39.359375 40.84375 
Q 42.484375 46.96875 42.484375 53.71875 
Q 42.484375 61.078125 38.640625 65.234375 
Q 34.8125 69.390625 28.078125 69.390625 
Q 21.09375 69.390625 17.28125 65.921875 
Q 13.484375 62.453125 12.796875 55.515625 
" id="BitstreamVeraSerif-Roman-32"/>
      </defs>
      <g transform="translate(329.738588368 228.378448281)scale(0.09163 -0.09163)">
       <use xlink:href="#BitstreamVeraSerif-Roman-32"/>
       <use x="63.623046875" xlink:href="#BitstreamVeraSerif-Roman-30"/>
       <use x="127.24609375" xlink:href="#BitstreamVeraSerif-Roman-30"/>
      </g>
     </g>
    </g>
    <g id="xtick_7">
     <g id="line2d_19">
      <path clip-path="url(#p137ff5276b)" d="M 390.322415 217.416 
L 390.322415 16.2 
" style="fill:none;stroke:#999999;stroke-dasharray:1.000000,3.000000;stroke-dashoffset:0.0;stroke-width:0.25;"/>
     </g>
     <g id="line2d_20">
      <g>
       <use style="stroke:#000000;stroke-width:0.5;" x="390.322415382" xlink:href="#m8886024ef2" y="217.416"/>
      </g>
     </g>
     <g id="line2d_21">
      <g>
       <use style="stroke:#000000;stroke-width:0.5;" x="390.322415382" xlink:href="#m4d0377929c" y="16.2"/>
      </g>
     </g>
     <g id="text_7">
      <!-- 250 -->
      <g transform="translate(381.577477257 228.378448281)scale(0.09163 -0.09163)">
       <use xlink:href="#BitstreamVeraSerif-Roman-32"/>
       <use x="63.623046875" xlink:href="#BitstreamVeraSerif-Roman-35"/>
       <use x="127.24609375" xlink:href="#BitstreamVeraSerif-Roman-30"/>
      </g>
     </g>
    </g>
    <g id="text_8">
     <!-- Tuning of m2 [deg] -->
     <defs>
      <path d="M 52.484375 5.171875 
L 61.078125 5.171875 
L 61.078125 0 
L 43.5 0 
L 43.5 8.109375 
Q 40.875 3.21875 36.796875 0.890625 
Q 32.71875 -1.421875 26.703125 -1.421875 
Q 17.140625 -1.421875 11.0625 6.171875 
Q 4.984375 13.765625 4.984375 25.984375 
Q 4.984375 38.1875 11.03125 45.75 
Q 17.09375 53.328125 26.703125 53.328125 
Q 32.71875 53.328125 36.796875 51 
Q 40.875 48.6875 43.5 43.796875 
L 43.5 70.796875 
L 35.015625 70.796875 
L 35.015625 75.984375 
L 52.484375 75.984375 
z
M 43.5 23.390625 
L 43.5 28.515625 
Q 43.5 37.84375 39.90625 42.765625 
Q 36.328125 47.703125 29.5 47.703125 
Q 22.5625 47.703125 19.015625 42.234375 
Q 15.484375 36.765625 15.484375 25.984375 
Q 15.484375 15.234375 19.015625 9.71875 
Q 22.5625 4.203125 29.5 4.203125 
Q 36.328125 4.203125 39.90625 9.109375 
Q 43.5 14.015625 43.5 23.390625 
" id="BitstreamVeraSerif-Roman-64"/>
      <path d="M 19.09375 0 
L 19.09375 5.171875 
L 28.421875 5.171875 
L 28.421875 67.09375 
L 6.984375 67.09375 
L 6.984375 55.71875 
L 0.984375 55.71875 
L 0.984375 72.90625 
L 65.71875 72.90625 
L 65.71875 55.71875 
L 59.71875 55.71875 
L 59.71875 67.09375 
L 38.28125 67.09375 
L 38.28125 5.171875 
L 47.609375 5.171875 
L 47.609375 0 
z
" id="BitstreamVeraSerif-Roman-54"/>
      <path d="M 54.203125 25 
L 15.484375 25 
L 15.484375 24.609375 
Q 15.484375 14.109375 19.4375 8.765625 
Q 23.390625 3.421875 31.109375 3.421875 
Q 37.015625 3.421875 40.796875 6.515625 
Q 44.578125 9.625 46.09375 15.71875 
L 53.328125 15.71875 
Q 51.171875 7.171875 45.375 2.875 
Q 39.59375 -1.421875 30.171875 -1.421875 
Q 18.796875 -1.421875 11.890625 6.078125 
Q 4.984375 13.578125 4.984375 25.984375 
Q 4.984375 38.28125 11.765625 45.796875 
Q 18.5625 53.328125 29.59375 53.328125 
Q 41.359375 53.328125 47.65625 46.0625 
Q 53.953125 38.8125 54.203125 25 
M 43.609375 30.171875 
Q 43.3125 39.265625 39.765625 43.875 
Q 36.234375 48.484375 29.59375 48.484375 
Q 23.390625 48.484375 19.828125 43.84375 
Q 16.265625 39.203125 15.484375 30.171875 
z
" id="BitstreamVeraSerif-Roman-65"/>
      <path d="M 43.015625 63.71875 
L 38.28125 63.71875 
Q 38.234375 67.390625 36.203125 69.28125 
Q 34.1875 71.1875 30.328125 71.1875 
Q 25.296875 71.1875 23.234375 68.421875 
Q 21.1875 65.671875 21.1875 58.59375 
L 21.1875 51.90625 
L 35.6875 51.90625 
L 35.6875 46.6875 
L 21.1875 46.6875 
L 21.1875 5.171875 
L 32.71875 5.171875 
L 32.71875 0 
L 3.609375 0 
L 3.609375 5.171875 
L 12.203125 5.171875 
L 12.203125 46.6875 
L 3.609375 46.6875 
L 3.609375 51.90625 
L 12.203125 51.90625 
L 12.203125 58.40625 
Q 12.203125 67.09375 16.71875 71.53125 
Q 21.234375 75.984375 29.984375 75.984375 
Q 33.25 75.984375 36.515625 75.390625 
Q 39.796875 74.8125 43.015625 73.578125 
z
" id="BitstreamVeraSerif-Roman-66"/>
      <path d="M 4.109375 0 
L 4.109375 5.171875 
L 12.203125 5.171875 
L 12.203125 46.6875 
L 3.609375 46.6875 
L 3.609375 51.90625 
L 21.1875 51.90625 
L 21.1875 42.671875 
Q 23.6875 47.953125 27.65625 50.640625 
Q 31.640625 53.328125 36.921875 53.328125 
Q 45.515625 53.328125 49.5625 48.390625 
Q 53.609375 43.453125 53.609375 33.015625 
L 53.609375 5.171875 
L 61.625 5.171875 
L 61.625 0 
L 36.8125 0 
L 36.8125 5.171875 
L 44.578125 5.171875 
L 44.578125 30.171875 
Q 44.578125 39.703125 42.234375 43.234375 
Q 39.890625 46.78125 33.984375 46.78125 
Q 27.734375 46.78125 24.453125 42.203125 
Q 21.1875 37.640625 21.1875 28.90625 
L 21.1875 5.171875 
L 29 5.171875 
L 29 0 
z
" id="BitstreamVeraSerif-Roman-6e"/>
      <path d="M 35.40625 51.90625 
L 52.203125 51.90625 
L 52.203125 5.171875 
L 60.6875 5.171875 
L 60.6875 0 
L 43.21875 0 
L 43.21875 9.1875 
Q 40.71875 4 36.765625 1.28125 
Q 32.8125 -1.421875 27.59375 -1.421875 
Q 18.953125 -1.421875 14.875 3.484375 
Q 10.796875 8.40625 10.796875 18.890625 
L 10.796875 46.6875 
L 2.6875 46.6875 
L 2.6875 51.90625 
L 19.828125 51.90625 
L 19.828125 21.6875 
Q 19.828125 12.203125 22.140625 8.6875 
Q 24.46875 5.171875 30.421875 5.171875 
Q 36.671875 5.171875 39.9375 9.765625 
Q 43.21875 14.359375 43.21875 23.09375 
L 43.21875 46.6875 
L 35.40625 46.6875 
z
" id="BitstreamVeraSerif-Roman-75"/>
      <path d="M 30.078125 3.421875 
Q 37.3125 3.421875 40.984375 9.125 
Q 44.671875 14.84375 44.671875 25.984375 
Q 44.671875 37.109375 40.984375 42.796875 
Q 37.3125 48.484375 30.078125 48.484375 
Q 22.859375 48.484375 19.171875 42.796875 
Q 15.484375 37.109375 15.484375 25.984375 
Q 15.484375 14.84375 19.1875 9.125 
Q 22.90625 3.421875 30.078125 3.421875 
M 30.078125 -1.421875 
Q 18.75 -1.421875 11.859375 6.078125 
Q 4.984375 13.578125 4.984375 25.984375 
Q 4.984375 38.375 11.84375 45.84375 
Q 18.703125 53.328125 30.078125 53.328125 
Q 41.453125 53.328125 48.3125 45.84375 
Q 55.171875 38.375 55.171875 25.984375 
Q 55.171875 13.578125 48.3125 6.078125 
Q 41.453125 -1.421875 30.078125 -1.421875 
" id="BitstreamVeraSerif-Roman-6f"/>
      <path d="M 9.71875 68.015625 
Q 9.71875 70.265625 11.34375 71.921875 
Q 12.984375 73.578125 15.28125 73.578125 
Q 17.53125 73.578125 19.15625 71.921875 
Q 20.796875 70.265625 20.796875 68.015625 
Q 20.796875 65.71875 19.1875 64.109375 
Q 17.578125 62.5 15.28125 62.5 
Q 12.984375 62.5 11.34375 64.109375 
Q 9.71875 65.71875 9.71875 68.015625 
M 21.1875 5.171875 
L 29.6875 5.171875 
L 29.6875 0 
L 3.609375 0 
L 3.609375 5.171875 
L 12.203125 5.171875 
L 12.203125 46.6875 
L 3.609375 46.6875 
L 3.609375 51.90625 
L 21.1875 51.90625 
z
" id="BitstreamVeraSerif-Roman-69"/>
      <path d="M 30.421875 75.984375 
L 30.421875 -13.1875 
L 7.71875 -13.1875 
L 7.71875 -8.015625 
L 21.09375 -8.015625 
L 21.09375 70.796875 
L 7.71875 70.796875 
L 7.71875 75.984375 
z
" id="BitstreamVeraSerif-Roman-5d"/>
      <path d="M 52.484375 46.6875 
L 52.484375 1.125 
Q 52.484375 -10.0625 46.328125 -16.140625 
Q 40.1875 -22.21875 28.8125 -22.21875 
Q 23.6875 -22.21875 19 -21.28125 
Q 14.3125 -20.359375 10.015625 -18.5 
L 10.015625 -7.625 
L 14.703125 -7.625 
Q 15.578125 -12.703125 18.84375 -15.046875 
Q 22.125 -17.390625 28.21875 -17.390625 
Q 36.140625 -17.390625 39.8125 -12.921875 
Q 43.5 -8.453125 43.5 1.125 
L 43.5 8.109375 
Q 40.875 3.21875 36.796875 0.890625 
Q 32.71875 -1.421875 26.703125 -1.421875 
Q 17.140625 -1.421875 11.0625 6.171875 
Q 4.984375 13.765625 4.984375 25.984375 
Q 4.984375 38.1875 11.03125 45.75 
Q 17.09375 53.328125 26.703125 53.328125 
Q 32.71875 53.328125 36.796875 51 
Q 40.875 48.6875 43.5 43.796875 
L 43.5 51.90625 
L 61.078125 51.90625 
L 61.078125 46.6875 
z
M 43.5 28.515625 
Q 43.5 37.84375 39.90625 42.765625 
Q 36.328125 47.703125 29.5 47.703125 
Q 22.5625 47.703125 19.015625 42.234375 
Q 15.484375 36.765625 15.484375 25.984375 
Q 15.484375 15.234375 19.015625 9.71875 
Q 22.5625 4.203125 29.5 4.203125 
Q 36.328125 4.203125 39.90625 9.109375 
Q 43.5 14.015625 43.5 23.390625 
z
" id="BitstreamVeraSerif-Roman-67"/>
      <path d="M 8.59375 75.984375 
L 31.296875 75.984375 
L 31.296875 70.796875 
L 17.921875 70.796875 
L 17.921875 -8.015625 
L 31.296875 -8.015625 
L 31.296875 -13.1875 
L 8.59375 -13.1875 
z
" id="BitstreamVeraSerif-Roman-5b"/>
      <path id="BitstreamVeraSerif-Roman-20"/>
      <path d="M 51.8125 41.796875 
Q 54.390625 47.515625 58.421875 50.421875 
Q 62.453125 53.328125 67.828125 53.328125 
Q 75.984375 53.328125 79.984375 48.265625 
Q 83.984375 43.21875 83.984375 33.015625 
L 83.984375 5.171875 
L 92.09375 5.171875 
L 92.09375 0 
L 67.1875 0 
L 67.1875 5.171875 
L 75 5.171875 
L 75 31.984375 
Q 75 39.9375 72.65625 43.3125 
Q 70.3125 46.6875 64.890625 46.6875 
Q 58.890625 46.6875 55.734375 42.140625 
Q 52.59375 37.59375 52.59375 28.90625 
L 52.59375 5.171875 
L 60.40625 5.171875 
L 60.40625 0 
L 35.796875 0 
L 35.796875 5.171875 
L 43.609375 5.171875 
L 43.609375 32.328125 
Q 43.609375 40.09375 41.265625 43.390625 
Q 38.921875 46.6875 33.5 46.6875 
Q 27.484375 46.6875 24.328125 42.140625 
Q 21.1875 37.59375 21.1875 28.90625 
L 21.1875 5.171875 
L 29 5.171875 
L 29 0 
L 4.109375 0 
L 4.109375 5.171875 
L 12.203125 5.171875 
L 12.203125 46.78125 
L 3.609375 46.78125 
L 3.609375 51.90625 
L 21.1875 51.90625 
L 21.1875 42.671875 
Q 23.6875 47.859375 27.53125 50.59375 
Q 31.390625 53.328125 36.28125 53.328125 
Q 42.328125 53.328125 46.375 50.3125 
Q 50.4375 47.3125 51.8125 41.796875 
" id="BitstreamVeraSerif-Roman-6d"/>
     </defs>
     <g transform="translate(175.828595937 242.882503437)scale(0.1 -0.1)">
      <use xlink:href="#BitstreamVeraSerif-Roman-54"/>
      <use x="66.69921875" xlink:href="#BitstreamVeraSerif-Roman-75"/>
      <use x="131.103515625" xlink:href="#BitstreamVeraSerif-Roman-6e"/>
      <use x="195.5078125" xlink:href="#BitstreamVeraSerif-Roman-69"/>
      <use x="227.490234375" xlink:href="#BitstreamVeraSerif-Roman-6e"/>
      <use x="291.89453125" xlink:href="#BitstreamVeraSerif-Roman-67"/>
      <use x="355.908203125" xlink:href="#BitstreamVeraSerif-Roman-20"/>
      <use x="387.6953125" xlink:href="#BitstreamVeraSerif-Roman-6f"/>
      <use x="447.900390625" xlink:href="#BitstreamVeraSerif-Roman-66"/>
      <use x="484.912109375" xlink:href="#BitstreamVeraSerif-Roman-20"/>
      <use x="516.69921875" xlink:href="#BitstreamVeraSerif-Roman-6d"/>
      <use x="611.5234375" xlink:href="#BitstreamVeraSerif-Roman-32"/>
      <use x="675.146484375" xlink:href="#BitstreamVeraSerif-Roman-20"/>
      <use x="706.93359375" xlink:href="#BitstreamVeraSerif-Roman-5b"/>
      <use x="745.947265625" xlink:href="#BitstreamVeraSerif-Roman-64"/>
      <use x="809.9609375" xlink:href="#BitstreamVeraSerif-Roman-65"/>
      <use x="869.140625" xlink:href="#BitstreamVeraSerif-Roman-67"/>
      <use x="933.154296875" xlink:href="#BitstreamVeraSerif-Roman-5d"/>
     </g>
    </g>
   </g>
   <g id="matplotlib.axis_2">
    <g id="ytick_1">
     <g id="line2d_22">
      <path clip-path="url(#p137ff5276b)" d="M 37.817971 217.416 
L 411.057971 217.416 
" style="fill:none;stroke:#999999;stroke-dasharray:1.000000,3.000000;stroke-dashoffset:0.0;stroke-width:0.25;"/>
     </g>
     <g id="line2d_23">
      <defs>
       <path d="M 0 0 
L 4 0 
" id="mb5510d41b7" style="stroke:#000000;stroke-width:0.5;"/>
      </defs>
      <g>
       <use style="stroke:#000000;stroke-width:0.5;" x="37.8179709375" xlink:href="#mb5510d41b7" y="217.416"/>
      </g>
     </g>
     <g id="line2d_24">
      <defs>
       <path d="M 0 0 
L -4 0 
" id="m28eb4dba76" style="stroke:#000000;stroke-width:0.5;"/>
      </defs>
      <g>
       <use style="stroke:#000000;stroke-width:0.5;" x="411.057970937" xlink:href="#m28eb4dba76" y="217.416"/>
      </g>
     </g>
     <g id="text_9">
      <!-- 0.0 -->
      <defs>
       <path d="M 9.421875 5.078125 
Q 9.421875 7.8125 11.28125 9.71875 
Q 13.140625 11.625 15.921875 11.625 
Q 18.609375 11.625 20.5 9.71875 
Q 22.40625 7.8125 22.40625 5.078125 
Q 22.40625 2.390625 20.5 0.484375 
Q 18.609375 -1.421875 15.921875 -1.421875 
Q 13.140625 -1.421875 11.28125 0.453125 
Q 9.421875 2.34375 9.421875 5.078125 
" id="BitstreamVeraSerif-Roman-2e"/>
      </defs>
      <g transform="translate(19.2459375 219.944415312)scale(0.09163 -0.09163)">
       <use xlink:href="#BitstreamVeraSerif-Roman-30"/>
       <use x="63.623046875" xlink:href="#BitstreamVeraSerif-Roman-2e"/>
       <use x="95.41015625" xlink:href="#BitstreamVeraSerif-Roman-30"/>
      </g>
     </g>
    </g>
    <g id="ytick_2">
     <g id="line2d_25">
      <path clip-path="url(#p137ff5276b)" d="M 37.817971 183.88 
L 411.057971 183.88 
" style="fill:none;stroke:#999999;stroke-dasharray:1.000000,3.000000;stroke-dashoffset:0.0;stroke-width:0.25;"/>
     </g>
     <g id="line2d_26">
      <g>
       <use style="stroke:#000000;stroke-width:0.5;" x="37.8179709375" xlink:href="#mb5510d41b7" y="183.88"/>
      </g>
     </g>
     <g id="line2d_27">
      <g>
       <use style="stroke:#000000;stroke-width:0.5;" x="411.057970937" xlink:href="#m28eb4dba76" y="183.88"/>
      </g>
     </g>
     <g id="text_10">
      <!-- 0.5 -->
      <g transform="translate(19.2459375 186.408415312)scale(0.09163 -0.09163)">
       <use xlink:href="#BitstreamVeraSerif-Roman-30"/>
       <use x="63.623046875" xlink:href="#BitstreamVeraSerif-Roman-2e"/>
       <use x="95.41015625" xlink:href="#BitstreamVeraSerif-Roman-35"/>
      </g>
     </g>
    </g>
    <g id="ytick_3">
     <g id="line2d_28">
      <path clip-path="url(#p137ff5276b)" d="M 37.817971 150.344 
L 411.057971 150.344 
" style="fill:none;stroke:#999999;stroke-dasharray:1.000000,3.000000;stroke-dashoffset:0.0;stroke-width:0.25;"/>
     </g>
     <g id="line2d_29">
      <g>
       <use style="stroke:#000000;stroke-width:0.5;" x="37.8179709375" xlink:href="#mb5510d41b7" y="150.344"/>
      </g>
     </g>
     <g id="line2d_30">
      <g>
       <use style="stroke:#000000;stroke-width:0.5;" x="411.057970937" xlink:href="#m28eb4dba76" y="150.344"/>
      </g>
     </g>
     <g id="text_11">
      <!-- 1.0 -->
      <g transform="translate(19.2459375 152.872415312)scale(0.09163 -0.09163)">
       <use xlink:href="#BitstreamVeraSerif-Roman-31"/>
       <use x="63.623046875" xlink:href="#BitstreamVeraSerif-Roman-2e"/>
       <use x="95.41015625" xlink:href="#BitstreamVeraSerif-Roman-30"/>
      </g>
     </g>
    </g>
    <g id="ytick_4">
     <g id="line2d_31">
      <path clip-path="url(#p137ff5276b)" d="M 37.817971 116.808 
L 411.057971 116.808 
" style="fill:none;stroke:#999999;stroke-dasharray:1.000000,3.000000;stroke-dashoffset:0.0;stroke-width:0.25;"/>
     </g>
     <g id="line2d_32">
      <g>
       <use style="stroke:#000000;stroke-width:0.5;" x="37.8179709375" xlink:href="#mb5510d41b7" y="116.808"/>
      </g>
     </g>
     <g id="line2d_33">
      <g>
       <use style="stroke:#000000;stroke-width:0.5;" x="411.057970937" xlink:href="#m28eb4dba76" y="116.808"/>
      </g>
     </g>
     <g id="text_12">
      <!-- 1.5 -->
      <g transform="translate(19.2459375 119.336415312)scale(0.09163 -0.09163)">
       <use xlink:href="#BitstreamVeraSerif-Roman-31"/>
       <use x="63.623046875" xlink:href="#BitstreamVeraSerif-Roman-2e"/>
       <use x="95.41015625" xlink:href="#BitstreamVeraSerif-Roman-35"/>
      </g>
     </g>
    </g>
    <g id="ytick_5">
     <g id="line2d_34">
      <path clip-path="url(#p137ff5276b)" d="M 37.817971 83.272 
L 411.057971 83.272 
" style="fill:none;stroke:#999999;stroke-dasharray:1.000000,3.000000;stroke-dashoffset:0.0;stroke-width:0.25;"/>
     </g>
     <g id="line2d_35">
      <g>
       <use style="stroke:#000000;stroke-width:0.5;" x="37.8179709375" xlink:href="#mb5510d41b7" y="83.272"/>
      </g>
     </g>
     <g id="line2d_36">
      <g>
       <use style="stroke:#000000;stroke-width:0.5;" x="411.057970937" xlink:href="#m28eb4dba76" y="83.272"/>
      </g>
     </g>
     <g id="text_13">
      <!-- 2.0 -->
      <g transform="translate(19.2459375 85.8004153125)scale(0.09163 -0.09163)">
       <use xlink:href="#BitstreamVeraSerif-Roman-32"/>
       <use x="63.623046875" xlink:href="#BitstreamVeraSerif-Roman-2e"/>
       <use x="95.41015625" xlink:href="#BitstreamVeraSerif-Roman-30"/>
      </g>
     </g>
    </g>
    <g id="ytick_6">
     <g id="line2d_37">
      <path clip-path="url(#p137ff5276b)" d="M 37.817971 49.736 
L 411.057971 49.736 
" style="fill:none;stroke:#999999;stroke-dasharray:1.000000,3.000000;stroke-dashoffset:0.0;stroke-width:0.25;"/>
     </g>
     <g id="line2d_38">
      <g>
       <use style="stroke:#000000;stroke-width:0.5;" x="37.8179709375" xlink:href="#mb5510d41b7" y="49.736"/>
      </g>
     </g>
     <g id="line2d_39">
      <g>
       <use style="stroke:#000000;stroke-width:0.5;" x="411.057970937" xlink:href="#m28eb4dba76" y="49.736"/>
      </g>
     </g>
     <g id="text_14">
      <!-- 2.5 -->
      <g transform="translate(19.2459375 52.2644153125)scale(0.09163 -0.09163)">
       <use xlink:href="#BitstreamVeraSerif-Roman-32"/>
       <use x="63.623046875" xlink:href="#BitstreamVeraSerif-Roman-2e"/>
       <use x="95.41015625" xlink:href="#BitstreamVeraSerif-Roman-35"/>
      </g>
     </g>
    </g>
    <g id="ytick_7">
     <g id="line2d_40">
      <path clip-path="url(#p137ff5276b)" d="M 37.817971 16.2 
L 411.057971 16.2 
" style="fill:none;stroke:#999999;stroke-dasharray:1.000000,3.000000;stroke-dashoffset:0.0;stroke-width:0.25;"/>
     </g>
     <g id="line2d_41">
      <g>
       <use style="stroke:#000000;stroke-width:0.5;" x="37.8179709375" xlink:href="#mb5510d41b7" y="16.2"/>
      </g>
     </g>
     <g id="line2d_42">
      <g>
       <use style="stroke:#000000;stroke-width:0.5;" x="411.057970937" xlink:href="#m28eb4dba76" y="16.2"/>
      </g>
     </g>
     <g id="text_15">
      <!-- 3.0 -->
      <defs>
       <path d="M 9.71875 69.828125 
Q 15.4375 71.96875 20.671875 73.09375 
Q 25.921875 74.21875 30.515625 74.21875 
Q 41.21875 74.21875 47.21875 69.59375 
Q 53.21875 64.984375 53.21875 56.78125 
Q 53.21875 50.203125 49.0625 45.78125 
Q 44.921875 41.359375 37.3125 39.796875 
Q 46.296875 38.53125 51.25 33.28125 
Q 56.203125 28.03125 56.203125 19.671875 
Q 56.203125 9.46875 49.34375 4.015625 
Q 42.484375 -1.421875 29.59375 -1.421875 
Q 23.875 -1.421875 18.421875 -0.1875 
Q 12.984375 1.03125 7.625 3.515625 
L 7.625 17.671875 
L 13.09375 17.671875 
Q 13.578125 10.640625 17.828125 7.03125 
Q 22.078125 3.421875 29.78125 3.421875 
Q 37.25 3.421875 41.578125 7.734375 
Q 45.90625 12.0625 45.90625 19.578125 
Q 45.90625 28.171875 41.453125 32.59375 
Q 37.015625 37.015625 28.421875 37.015625 
L 23.78125 37.015625 
L 23.78125 42 
L 26.21875 42 
Q 34.765625 42 39.03125 45.53125 
Q 43.3125 49.078125 43.3125 56.203125 
Q 43.3125 62.59375 39.796875 65.984375 
Q 36.28125 69.390625 29.6875 69.390625 
Q 23.09375 69.390625 19.453125 66.265625 
Q 15.828125 63.140625 15.1875 56.984375 
L 9.71875 56.984375 
z
" id="BitstreamVeraSerif-Roman-33"/>
      </defs>
      <g transform="translate(19.2459375 18.7284153125)scale(0.09163 -0.09163)">
       <use xlink:href="#BitstreamVeraSerif-Roman-33"/>
       <use x="63.623046875" xlink:href="#BitstreamVeraSerif-Roman-2e"/>
       <use x="95.41015625" xlink:href="#BitstreamVeraSerif-Roman-30"/>
      </g>
     </g>
    </g>
    <g id="text_16">
     <!-- Power [W] -->
     <defs>
      <path d="M 48 51.90625 
L 61.28125 11.375 
L 73 46.6875 
L 65.484375 46.6875 
L 65.484375 51.90625 
L 84.28125 51.90625 
L 84.28125 46.6875 
L 78.515625 46.6875 
L 63.09375 0 
L 55.609375 0 
L 42.828125 38.8125 
L 29.984375 0 
L 22.796875 0 
L 7.421875 46.6875 
L 1.609375 46.6875 
L 1.609375 51.90625 
L 25.09375 51.90625 
L 25.09375 46.6875 
L 16.703125 46.6875 
L 28.328125 11.375 
L 41.703125 51.90625 
z
" id="BitstreamVeraSerif-Roman-77"/>
      <path d="M 24.703125 37.109375 
L 37.59375 37.109375 
Q 44.875 37.109375 48.671875 41.03125 
Q 52.484375 44.96875 52.484375 52.390625 
Q 52.484375 59.859375 48.671875 63.765625 
Q 44.875 67.671875 37.59375 67.671875 
L 24.703125 67.671875 
z
M 5.515625 0 
L 5.515625 5.171875 
L 14.796875 5.171875 
L 14.796875 67.671875 
L 5.515625 67.671875 
L 5.515625 72.90625 
L 39.984375 72.90625 
Q 50.921875 72.90625 57.3125 67.359375 
Q 63.71875 61.8125 63.71875 52.390625 
Q 63.71875 43.015625 57.3125 37.453125 
Q 50.921875 31.890625 39.984375 31.890625 
L 24.703125 31.890625 
L 24.703125 5.171875 
L 35.984375 5.171875 
L 35.984375 0 
z
" id="BitstreamVeraSerif-Roman-50"/>
      <path d="M 76.21875 0 
L 68.21875 0 
L 51.515625 59.28125 
L 34.8125 0 
L 26.8125 0 
L 7.71875 67.671875 
L 0.484375 67.671875 
L 0.484375 72.90625 
L 27.09375 72.90625 
L 27.09375 67.671875 
L 18.015625 67.671875 
L 33.203125 13.8125 
L 49.8125 72.90625 
L 57.71875 72.90625 
L 74.609375 13.1875 
L 89.890625 67.671875 
L 81.5 67.671875 
L 81.5 72.90625 
L 102.484375 72.90625 
L 102.484375 67.671875 
L 95.3125 67.671875 
z
" id="BitstreamVeraSerif-Roman-57"/>
      <path d="M 47.796875 52 
L 47.796875 39.015625 
L 42.625 39.015625 
Q 42.390625 42.875 40.484375 44.78125 
Q 38.578125 46.6875 34.90625 46.6875 
Q 28.265625 46.6875 24.71875 42.09375 
Q 21.1875 37.5 21.1875 28.90625 
L 21.1875 5.171875 
L 31.59375 5.171875 
L 31.59375 0 
L 4.109375 0 
L 4.109375 5.171875 
L 12.203125 5.171875 
L 12.203125 46.78125 
L 3.609375 46.78125 
L 3.609375 51.90625 
L 21.1875 51.90625 
L 21.1875 42.671875 
Q 23.828125 48.09375 27.96875 50.703125 
Q 32.125 53.328125 38.09375 53.328125 
Q 40.28125 53.328125 42.703125 52.984375 
Q 45.125 52.640625 47.796875 52 
" id="BitstreamVeraSerif-Roman-72"/>
     </defs>
     <g transform="translate(11.95828125 146.10065625)rotate(-90.0)scale(0.11 -0.11)">
      <use xlink:href="#BitstreamVeraSerif-Roman-50"/>
      <use x="67.22265625" xlink:href="#BitstreamVeraSerif-Roman-6f"/>
      <use x="127.427734375" xlink:href="#BitstreamVeraSerif-Roman-77"/>
      <use x="213.0234375" xlink:href="#BitstreamVeraSerif-Roman-65"/>
      <use x="272.203125" xlink:href="#BitstreamVeraSerif-Roman-72"/>
      <use x="320.005859375" xlink:href="#BitstreamVeraSerif-Roman-20"/>
      <use x="351.79296875" xlink:href="#BitstreamVeraSerif-Roman-5b"/>
      <use x="390.806640625" xlink:href="#BitstreamVeraSerif-Roman-57"/>
      <use x="493.58984375" xlink:href="#BitstreamVeraSerif-Roman-5d"/>
     </g>
    </g>
   </g>
   <g id="line2d_43">
    <path clip-path="url(#p137ff5276b)" d="M 37.817971 203.374447 
L 45.282771 203.263587 
L 52.560951 202.933666 
L 59.279271 202.412464 
L 65.437731 201.719756 
L 71.036331 200.872559 
L 76.075071 199.889584 
L 80.553951 198.795228 
L 84.659591 197.561543 
L 88.205371 196.272353 
L 91.377911 194.898286 
L 94.363831 193.367363 
L 96.976511 191.792804 
L 99.402571 190.087342 
L 101.642011 188.256642 
L 103.694831 186.312546 
L 105.747651 184.054805 
L 107.613851 181.666336 
L 109.293431 179.179099 
L 110.973011 176.297396 
L 112.465971 173.328538 
L 113.958931 169.886026 
L 115.451891 165.855722 
L 116.758231 161.729402 
L 118.064571 156.905426 
L 119.370911 151.211411 
L 120.677251 144.423187 
L 121.983591 136.252186 
L 123.103311 127.877694 
L 124.223031 117.969124 
L 125.529371 104.164014 
L 126.835711 87.888309 
L 129.635011 51.952075 
L 130.194871 47.377532 
L 130.568111 45.387498 
L 130.941351 44.365836 
L 131.127971 44.236841 
L 131.314591 44.365836 
L 131.687831 45.387498 
L 132.061071 47.377532 
L 132.620931 51.952075 
L 133.367411 60.282745 
L 135.046991 82.871406 
L 136.726571 104.164014 
L 138.032911 117.969124 
L 139.339251 129.372942 
L 140.645591 138.747507 
L 141.951931 146.489841 
L 143.258271 152.939018 
L 144.564611 158.364086 
L 146.057571 163.574727 
L 147.550531 167.952782 
L 149.043491 171.672892 
L 150.723071 175.233547 
L 152.402651 178.266517 
L 154.082231 180.876227 
L 155.948431 183.375133 
L 158.001251 185.730727 
L 160.054071 187.75396 
L 162.293511 189.654837 
L 164.719571 191.421902 
L 167.332251 193.050142 
L 170.131551 194.539226 
L 173.304091 195.969591 
L 176.849871 197.309083 
L 180.768891 198.536156 
L 185.061151 199.637455 
L 189.726651 200.605342 
L 194.952011 201.462658 
L 200.737231 202.186468 
L 207.082311 202.757413 
L 213.987251 203.155789 
L 221.265431 203.354529 
L 228.730231 203.337953 
L 236.008411 203.105641 
L 243.099971 202.656958 
L 249.631671 202.019793 
L 255.416891 201.239301 
L 260.642251 200.318524 
L 265.307751 199.279749 
L 269.600011 198.096413 
L 273.332411 196.843731 
L 276.691571 195.492454 
L 279.864111 193.971879 
L 282.663411 192.383505 
L 285.276091 190.640188 
L 287.702151 188.740372 
L 289.941591 186.687441 
L 291.994411 184.491779 
L 293.860611 182.173129 
L 295.726811 179.473445 
L 297.406391 176.639787 
L 299.085971 173.328538 
L 300.578931 169.886026 
L 302.071891 165.855722 
L 303.378231 161.729402 
L 304.684571 156.905426 
L 305.990911 151.211411 
L 307.297251 144.423187 
L 308.603591 136.252186 
L 309.723311 127.877694 
L 310.843031 117.969124 
L 312.149371 104.164014 
L 313.455711 87.888309 
L 316.255011 51.952075 
L 316.814871 47.377532 
L 317.188111 45.387498 
L 317.561351 44.365836 
L 317.747971 44.236841 
L 317.934591 44.365836 
L 318.307831 45.387498 
L 318.681071 47.377532 
L 319.240931 51.952075 
L 319.987411 60.282745 
L 321.666991 82.871406 
L 323.346571 104.164014 
L 324.652911 117.969124 
L 325.959251 129.372942 
L 327.265591 138.747507 
L 328.571931 146.489841 
L 329.878271 152.939018 
L 331.184611 158.364086 
L 332.677571 163.574727 
L 334.170531 167.952782 
L 335.663491 171.672892 
L 337.343071 175.233547 
L 339.022651 178.266517 
L 340.702231 180.876227 
L 342.568431 183.375133 
L 344.621251 185.730727 
L 346.674071 187.75396 
L 348.913511 189.654837 
L 351.339571 191.421902 
L 353.952251 193.050142 
L 356.751551 194.539226 
L 359.924091 195.969591 
L 363.469871 197.309083 
L 367.388891 198.536156 
L 371.681151 199.637455 
L 376.346651 200.605342 
L 381.572011 201.462658 
L 387.357231 202.186468 
L 393.702311 202.757413 
L 400.607251 203.155789 
L 407.885431 203.354529 
L 411.057971 203.374447 
L 411.057971 203.374447 
" style="fill:none;stroke:#0000ff;stroke-linecap:square;stroke-width:1.2;"/>
   </g>
   <g id="line2d_44">
    <path clip-path="url(#p137ff5276b)" d="M 37.817971 150.564834 
L 74.582111 150.676029 
L 91.751151 150.922459 
L 100.895531 151.259684 
L 106.494131 151.670692 
L 110.413151 152.167669 
L 113.212451 152.72606 
L 115.451891 153.385665 
L 117.318091 154.170769 
L 118.811051 155.037674 
L 120.117391 156.055866 
L 121.237111 157.205849 
L 122.356831 158.719633 
L 123.289931 160.368456 
L 124.223031 162.505154 
L 125.156131 165.310977 
L 125.902611 168.202662 
L 126.649091 171.84553 
L 127.395571 176.43361 
L 128.328671 183.805308 
L 129.261771 193.256355 
L 130.381491 207.176769 
L 131.127971 217.416 
L 132.807551 195.398633 
L 133.927271 183.805308 
L 134.860371 176.43361 
L 135.793471 170.854175 
L 136.726571 166.673992 
L 137.659671 163.534904 
L 138.592771 161.155784 
L 139.525871 159.329865 
L 140.645591 157.663649 
L 141.765311 156.40599 
L 143.071651 155.299568 
L 144.564611 154.363768 
L 146.244191 153.593764 
L 148.297011 152.919578 
L 150.723071 152.364103 
L 153.895611 151.876772 
L 158.187871 151.462056 
L 164.159711 151.126614 
L 173.117471 150.864058 
L 188.047071 150.673112 
L 215.853451 150.569487 
L 255.416891 150.637258 
L 275.571851 150.860302 
L 285.835951 151.175714 
L 291.994411 151.567291 
L 296.286671 152.052643 
L 299.272591 152.595081 
L 301.698651 153.257868 
L 303.564851 153.991229 
L 305.057811 154.795635 
L 306.364151 155.734379 
L 307.483871 156.788062 
L 308.603591 158.166371 
L 309.536691 159.658609 
L 310.469791 161.581689 
L 311.402891 164.094082 
L 312.335991 167.416316 
L 313.082471 170.854175 
L 313.828951 175.186673 
L 314.762051 182.170448 
L 315.695151 191.195975 
L 316.814871 204.700219 
L 317.747971 217.416 
L 319.427551 195.398633 
L 320.547271 183.805308 
L 321.480371 176.43361 
L 322.413471 170.854175 
L 323.346571 166.673992 
L 324.279671 163.534904 
L 325.212771 161.155784 
L 326.145871 159.329865 
L 327.265591 157.663649 
L 328.385311 156.40599 
L 329.691651 155.299568 
L 331.184611 154.363768 
L 332.864191 153.593764 
L 334.917011 152.919578 
L 337.343071 152.364103 
L 340.515611 151.876772 
L 344.807871 151.462056 
L 350.779711 151.126614 
L 359.737471 150.864058 
L 374.667071 150.673112 
L 402.473451 150.569487 
L 411.057971 150.564834 
L 411.057971 150.564834 
" style="fill:none;stroke:#ff0000;stroke-linecap:square;stroke-width:1.2;"/>
   </g>
   <g id="line2d_45">
    <path clip-path="url(#p137ff5276b)" d="M 37.817971 211.97773 
L 49.761651 211.866681 
L 60.772231 211.548015 
L 70.289851 211.057804 
L 78.314511 210.427423 
L 84.846211 209.702299 
L 90.444811 208.860951 
L 95.110311 207.93729 
L 99.029331 206.939997 
L 102.388491 205.861344 
L 105.374411 204.664504 
L 107.987091 203.3678 
L 110.226531 202.007849 
L 112.279351 200.493981 
L 114.145551 198.826097 
L 115.825131 197.014515 
L 117.318091 195.084544 
L 118.811051 192.766504 
L 120.117391 190.331187 
L 121.423731 187.411538 
L 122.730071 183.880137 
L 123.849791 180.25173 
L 125.156131 175.181893 
L 126.462471 169.139198 
L 129.821631 152.667784 
L 130.381491 151.130169 
L 130.754731 150.54317 
L 131.127971 150.344 
L 131.501211 150.54317 
L 131.874451 151.130169 
L 132.434311 152.667784 
L 133.180791 155.681379 
L 134.487131 162.333395 
L 136.539951 172.709347 
L 137.846291 178.196204 
L 139.152631 182.737963 
L 140.458971 186.471251 
L 141.765311 189.551472 
L 143.071651 192.113786 
L 144.564611 194.545292 
L 146.057571 196.563365 
L 147.737151 198.451831 
L 149.603351 200.185165 
L 151.469551 201.62344 
L 153.708991 203.052069 
L 156.135051 204.321059 
L 158.934351 205.51488 
L 162.106891 206.606933 
L 165.652671 207.585245 
L 169.758311 208.484145 
L 174.610431 209.312094 
L 180.395651 210.062445 
L 187.300591 210.720658 
L 195.511871 211.268142 
L 205.216111 211.682164 
L 216.226691 211.925706 
L 228.170371 211.967048 
L 239.927431 211.788781 
L 250.564771 211.410083 
L 259.522531 210.878221 
L 266.987331 210.223737 
L 273.332411 209.448395 
L 278.557771 208.591169 
L 283.036651 207.630992 
L 286.769051 206.606933 
L 289.941591 205.51488 
L 292.740891 204.321059 
L 295.166951 203.052069 
L 297.406391 201.62344 
L 299.272591 200.185165 
L 301.138791 198.451831 
L 302.818371 196.563365 
L 304.311331 194.545292 
L 305.804291 192.113786 
L 307.110631 189.551472 
L 308.416971 186.471251 
L 309.723311 182.737963 
L 310.843031 178.900391 
L 312.149371 173.553694 
L 313.642331 166.284368 
L 316.068391 154.060742 
L 316.814871 151.560384 
L 317.374731 150.54317 
L 317.747971 150.344 
L 318.121211 150.54317 
L 318.494451 151.130169 
L 319.054311 152.667784 
L 319.800791 155.681379 
L 321.107131 162.333395 
L 323.159951 172.709347 
L 324.466291 178.196204 
L 325.772631 182.737963 
L 327.078971 186.471251 
L 328.385311 189.551472 
L 329.691651 192.113786 
L 331.184611 194.545292 
L 332.677571 196.563365 
L 334.357151 198.451831 
L 336.223351 200.185165 
L 338.089551 201.62344 
L 340.328991 203.052069 
L 342.755051 204.321059 
L 345.554351 205.51488 
L 348.726891 206.606933 
L 352.272671 207.585245 
L 356.378311 208.484145 
L 361.230431 209.312094 
L 367.015651 210.062445 
L 373.920591 210.720658 
L 382.131871 211.268142 
L 391.836111 211.682164 
L 402.846691 211.925706 
L 411.057971 211.97773 
L 411.057971 211.97773 
" style="fill:none;stroke:#000000;stroke-dasharray:6.000000,6.000000;stroke-dashoffset:0.0;stroke-width:1.2;"/>
   </g>
   <g id="patch_3">
    <path d="M 411.057971 217.416 
L 411.057971 16.2 
" style="fill:none;stroke:#000000;stroke-linecap:square;stroke-linejoin:miter;"/>
   </g>
   <g id="patch_4">
    <path d="M 37.817971 217.416 
L 37.817971 16.2 
" style="fill:none;stroke:#000000;stroke-linecap:square;stroke-linejoin:miter;"/>
   </g>
   <g id="patch_5">
    <path d="M 37.817971 217.416 
L 411.057971 217.416 
" style="fill:none;stroke:#000000;stroke-linecap:square;stroke-linejoin:miter;"/>
   </g>
   <g id="patch_6">
    <path d="M 37.817971 16.2 
L 411.057971 16.2 
" style="fill:none;stroke:#000000;stroke-linecap:square;stroke-linejoin:miter;"/>
   </g>
   <g id="text_17">
    <!-- Impedance matched cavity, $T_1 = T_2$ -->
    <defs>
     <path d="M 21.578125 -9.515625 
L 25 -0.875 
L 5.609375 46.6875 
L -0.296875 46.6875 
L -0.296875 51.90625 
L 23.578125 51.90625 
L 23.578125 46.6875 
L 15.28125 46.6875 
L 29.890625 10.984375 
L 44.484375 46.6875 
L 36.71875 46.6875 
L 36.71875 51.90625 
L 56.203125 51.90625 
L 56.203125 46.6875 
L 50.390625 46.6875 
L 26.609375 -11.71875 
Q 24.171875 -17.78125 21.1875 -20 
Q 18.21875 -22.21875 12.796875 -22.21875 
Q 10.5 -22.21875 8.078125 -21.828125 
Q 5.671875 -21.4375 3.21875 -20.703125 
L 3.21875 -10.796875 
L 7.8125 -10.796875 
Q 8.109375 -14.109375 9.5 -15.546875 
Q 10.890625 -17 13.8125 -17 
Q 16.5 -17 18.140625 -15.5 
Q 19.78125 -14.015625 21.578125 -9.515625 
" id="BitstreamVeraSerif-Roman-79"/>
     <path d="M 39.796875 16.3125 
L 39.796875 27.296875 
L 28.21875 27.296875 
Q 21.53125 27.296875 18.25 24.40625 
Q 14.984375 21.53125 14.984375 15.578125 
Q 14.984375 10.15625 18.296875 6.984375 
Q 21.625 3.8125 27.296875 3.8125 
Q 32.90625 3.8125 36.34375 7.28125 
Q 39.796875 10.75 39.796875 16.3125 
M 48.78125 32.421875 
L 48.78125 5.171875 
L 56.78125 5.171875 
L 56.78125 0 
L 39.796875 0 
L 39.796875 5.609375 
Q 36.8125 2 32.90625 0.28125 
Q 29 -1.421875 23.78125 -1.421875 
Q 15.140625 -1.421875 10.0625 3.171875 
Q 4.984375 7.765625 4.984375 15.578125 
Q 4.984375 23.640625 10.796875 28.078125 
Q 16.609375 32.515625 27.203125 32.515625 
L 39.796875 32.515625 
L 39.796875 36.078125 
Q 39.796875 42 36.203125 45.234375 
Q 32.625 48.484375 26.125 48.484375 
Q 20.75 48.484375 17.578125 46.046875 
Q 14.40625 43.609375 13.625 38.8125 
L 8.984375 38.8125 
L 8.984375 49.3125 
Q 13.671875 51.3125 18.09375 52.3125 
Q 22.515625 53.328125 26.703125 53.328125 
Q 37.5 53.328125 43.140625 47.96875 
Q 48.78125 42.625 48.78125 32.421875 
" id="BitstreamVeraSerif-Roman-61"/>
     <path d="M 4.109375 0 
L 4.109375 5.171875 
L 12.203125 5.171875 
L 12.203125 70.796875 
L 3.609375 70.796875 
L 3.609375 75.984375 
L 21.1875 75.984375 
L 21.1875 42.671875 
Q 23.6875 47.953125 27.65625 50.640625 
Q 31.640625 53.328125 36.921875 53.328125 
Q 45.515625 53.328125 49.5625 48.390625 
Q 53.609375 43.453125 53.609375 33.015625 
L 53.609375 5.171875 
L 61.625 5.171875 
L 61.625 0 
L 36.8125 0 
L 36.8125 5.171875 
L 44.578125 5.171875 
L 44.578125 30.171875 
Q 44.578125 39.703125 42.25 43.1875 
Q 39.9375 46.6875 33.984375 46.6875 
Q 27.734375 46.6875 24.453125 42.140625 
Q 21.1875 37.59375 21.1875 28.90625 
L 21.1875 5.171875 
L 29 5.171875 
L 29 0 
z
" id="BitstreamVeraSerif-Roman-68"/>
     <path d="M 4.59375 1.3125 
Q 4.640625 1.5625 4.8125 2.1875 
Q 4.984375 2.828125 5.25 3.171875 
Q 5.515625 3.515625 6 3.515625 
Q 14.59375 3.515625 17.390625 4 
Q 20.0625 4.6875 20.609375 6.890625 
L 34.28125 61.8125 
Q 34.71875 63.03125 34.71875 64.015625 
Q 34.71875 64.796875 31.203125 64.796875 
L 25.390625 64.796875 
Q 18.703125 64.796875 15.0625 62.734375 
Q 11.421875 60.6875 9.71875 57.3125 
Q 8.015625 53.953125 5.328125 46.296875 
Q 4.984375 45.40625 4.296875 45.40625 
L 3.421875 45.40625 
Q 2.390625 45.40625 2.390625 46.6875 
L 9.515625 67.390625 
Q 9.71875 68.3125 10.5 68.3125 
L 69.578125 68.3125 
Q 70.609375 68.3125 70.609375 67 
L 67.28125 46.296875 
Q 67.28125 46 66.9375 45.703125 
Q 66.609375 45.40625 66.3125 45.40625 
L 65.375 45.40625 
Q 64.40625 45.40625 64.40625 46.6875 
Q 65.484375 53.765625 65.484375 56.6875 
Q 65.484375 60.203125 64.015625 62 
Q 62.546875 63.8125 60.203125 64.296875 
Q 57.859375 64.796875 54.109375 64.796875 
L 48.1875 64.796875 
Q 45.515625 64.796875 44.578125 64.296875 
Q 43.65625 63.8125 43.015625 61.375 
L 29.296875 6.5 
Q 29.25 6.296875 29.21875 6.09375 
Q 29.203125 5.90625 29.109375 5.609375 
Q 29.109375 4.34375 30.609375 4 
Q 33.203125 3.515625 41.703125 3.515625 
Q 42.671875 3.515625 42.671875 2.203125 
Q 42.328125 0.78125 42.125 0.390625 
Q 41.9375 0 41.015625 0 
L 5.609375 0 
Q 4.59375 0 4.59375 1.3125 
" id="Cmmi10-54"/>
     <path d="M 20.515625 28.515625 
L 20.515625 23.390625 
Q 20.515625 14.015625 24.09375 9.109375 
Q 27.6875 4.203125 34.515625 4.203125 
Q 41.40625 4.203125 44.9375 9.71875 
Q 48.484375 15.234375 48.484375 25.984375 
Q 48.484375 36.765625 44.9375 42.234375 
Q 41.40625 47.703125 34.515625 47.703125 
Q 27.6875 47.703125 24.09375 42.765625 
Q 20.515625 37.84375 20.515625 28.515625 
M 11.53125 46.6875 
L 2.875 46.6875 
L 2.875 51.90625 
L 20.515625 51.90625 
L 20.515625 43.796875 
Q 23.140625 48.6875 27.21875 51 
Q 31.296875 53.328125 37.3125 53.328125 
Q 46.875 53.328125 52.921875 45.75 
Q 58.984375 38.1875 58.984375 25.984375 
Q 58.984375 13.765625 52.921875 6.171875 
Q 46.875 -1.421875 37.3125 -1.421875 
Q 31.296875 -1.421875 27.21875 0.890625 
Q 23.140625 3.21875 20.515625 8.109375 
L 20.515625 -15.578125 
L 29 -15.578125 
L 29 -20.796875 
L 2.875 -20.796875 
L 2.875 -15.578125 
L 11.53125 -15.578125 
z
" id="BitstreamVeraSerif-Roman-70"/>
     <path d="M 9.28125 0 
L 9.28125 3.515625 
Q 21.78125 3.515625 21.78125 6.6875 
L 21.78125 59.1875 
Q 16.609375 56.6875 8.6875 56.6875 
L 8.6875 60.203125 
Q 20.953125 60.203125 27.203125 66.609375 
L 28.609375 66.609375 
Q 28.953125 66.609375 29.265625 66.328125 
Q 29.59375 66.0625 29.59375 65.71875 
L 29.59375 6.6875 
Q 29.59375 3.515625 42.09375 3.515625 
L 42.09375 0 
z
" id="Cmr10-31"/>
     <path d="M 10.796875 46.6875 
L 2.875 46.6875 
L 2.875 51.90625 
L 10.796875 51.90625 
L 10.796875 68.015625 
L 19.828125 68.015625 
L 19.828125 51.90625 
L 36.71875 51.90625 
L 36.71875 46.6875 
L 19.828125 46.6875 
L 19.828125 13.71875 
Q 19.828125 7.125 21.09375 5.265625 
Q 22.359375 3.421875 25.78125 3.421875 
Q 29.296875 3.421875 30.90625 5.484375 
Q 32.515625 7.5625 32.625 12.203125 
L 39.40625 12.203125 
Q 39.015625 5.125 35.546875 1.84375 
Q 32.078125 -1.421875 25 -1.421875 
Q 17.234375 -1.421875 14.015625 2.015625 
Q 10.796875 5.46875 10.796875 13.71875 
z
" id="BitstreamVeraSerif-Roman-74"/>
     <path d="M 7.515625 13.28125 
Q 6.6875 13.28125 6.140625 13.90625 
Q 5.609375 14.546875 5.609375 15.28125 
Q 5.609375 16.109375 6.140625 16.6875 
Q 6.6875 17.28125 7.515625 17.28125 
L 70.3125 17.28125 
Q 71.046875 17.28125 71.578125 16.6875 
Q 72.125 16.109375 72.125 15.28125 
Q 72.125 14.546875 71.578125 13.90625 
Q 71.046875 13.28125 70.3125 13.28125 
z
M 7.515625 32.71875 
Q 6.6875 32.71875 6.140625 33.296875 
Q 5.609375 33.890625 5.609375 34.71875 
Q 5.609375 35.453125 6.140625 36.078125 
Q 6.6875 36.71875 7.515625 36.71875 
L 70.3125 36.71875 
Q 71.046875 36.71875 71.578125 36.078125 
Q 72.125 35.453125 72.125 34.71875 
Q 72.125 33.890625 71.578125 33.296875 
Q 71.046875 32.71875 70.3125 32.71875 
z
" id="Cmr10-3d"/>
     <path d="M 24.703125 0 
L 5.609375 46.6875 
L -0.296875 46.6875 
L -0.296875 51.90625 
L 23.578125 51.90625 
L 23.578125 46.6875 
L 15.28125 46.6875 
L 29.890625 10.984375 
L 44.484375 46.6875 
L 36.71875 46.6875 
L 36.71875 51.90625 
L 56.203125 51.90625 
L 56.203125 46.6875 
L 50.390625 46.6875 
L 31.296875 0 
z
" id="BitstreamVeraSerif-Roman-76"/>
     <path d="M 3.609375 -9.71875 
Q 8.203125 -6.34375 10.34375 -1.78125 
Q 12.5 2.78125 12.5 9.28125 
L 12.5 11.078125 
L 22.125 11.078125 
Q 21.734375 2.734375 18.1875 -3.25 
Q 14.65625 -9.234375 7.515625 -13.625 
z
" id="BitstreamVeraSerif-Roman-2c"/>
     <path d="M 51.421875 15.578125 
Q 49.515625 7.28125 44.09375 2.921875 
Q 38.671875 -1.421875 30.078125 -1.421875 
Q 18.75 -1.421875 11.859375 6.078125 
Q 4.984375 13.578125 4.984375 25.984375 
Q 4.984375 38.421875 11.859375 45.875 
Q 18.75 53.328125 30.078125 53.328125 
Q 35.015625 53.328125 39.890625 52.171875 
Q 44.78125 51.03125 49.703125 48.6875 
L 49.703125 35.40625 
L 44.484375 35.40625 
Q 43.453125 42.234375 40.015625 45.359375 
Q 36.578125 48.484375 30.171875 48.484375 
Q 22.90625 48.484375 19.1875 42.84375 
Q 15.484375 37.203125 15.484375 25.984375 
Q 15.484375 14.75 19.171875 9.078125 
Q 22.859375 3.421875 30.171875 3.421875 
Q 35.984375 3.421875 39.453125 6.4375 
Q 42.921875 9.46875 44.1875 15.578125 
z
" id="BitstreamVeraSerif-Roman-63"/>
     <path d="M 4.984375 0 
L 4.984375 2.6875 
Q 4.984375 2.9375 5.171875 3.21875 
L 20.703125 20.40625 
Q 24.21875 24.21875 26.40625 26.796875 
Q 28.609375 29.390625 30.75 32.765625 
Q 32.90625 36.140625 34.15625 39.625 
Q 35.40625 43.109375 35.40625 47.015625 
Q 35.40625 51.125 33.890625 54.859375 
Q 32.375 58.59375 29.375 60.84375 
Q 26.375 63.09375 22.125 63.09375 
Q 17.78125 63.09375 14.3125 60.46875 
Q 10.84375 57.859375 9.421875 53.71875 
Q 9.8125 53.8125 10.5 53.8125 
Q 12.75 53.8125 14.328125 52.296875 
Q 15.921875 50.78125 15.921875 48.390625 
Q 15.921875 46.09375 14.328125 44.5 
Q 12.75 42.921875 10.5 42.921875 
Q 8.15625 42.921875 6.5625 44.546875 
Q 4.984375 46.1875 4.984375 48.390625 
Q 4.984375 52.15625 6.390625 55.4375 
Q 7.8125 58.734375 10.46875 61.296875 
Q 13.140625 63.875 16.484375 65.234375 
Q 19.828125 66.609375 23.578125 66.609375 
Q 29.296875 66.609375 34.21875 64.1875 
Q 39.15625 61.765625 42.03125 57.34375 
Q 44.921875 52.9375 44.921875 47.015625 
Q 44.921875 42.671875 43.015625 38.765625 
Q 41.109375 34.859375 38.125 31.65625 
Q 35.15625 28.46875 30.515625 24.40625 
Q 25.875 20.359375 24.421875 19 
L 13.09375 8.109375 
L 22.703125 8.109375 
Q 29.78125 8.109375 34.546875 8.21875 
Q 39.3125 8.34375 39.59375 8.59375 
Q 40.765625 9.859375 42 17.828125 
L 44.921875 17.828125 
L 42.09375 0 
z
" id="Cmr10-32"/>
     <path d="M 24.703125 5.171875 
L 33.984375 5.171875 
L 33.984375 0 
L 5.515625 0 
L 5.515625 5.171875 
L 14.796875 5.171875 
L 14.796875 67.671875 
L 5.515625 67.671875 
L 5.515625 72.90625 
L 33.984375 72.90625 
L 33.984375 67.671875 
L 24.703125 67.671875 
z
" id="BitstreamVeraSerif-Roman-49"/>
    </defs>
    <g transform="translate(137.437970937 11.2)scale(0.1 -0.1)">
     <use transform="translate(0.0 0.015625)" xlink:href="#BitstreamVeraSerif-Roman-49"/>
     <use transform="translate(39.501953125 0.015625)" xlink:href="#BitstreamVeraSerif-Roman-6d"/>
     <use transform="translate(134.326171875 0.015625)" xlink:href="#BitstreamVeraSerif-Roman-70"/>
     <use transform="translate(198.33984375 0.015625)" xlink:href="#BitstreamVeraSerif-Roman-65"/>
     <use transform="translate(257.51953125 0.015625)" xlink:href="#BitstreamVeraSerif-Roman-64"/>
     <use transform="translate(321.533203125 0.015625)" xlink:href="#BitstreamVeraSerif-Roman-61"/>
     <use transform="translate(381.15234375 0.015625)" xlink:href="#BitstreamVeraSerif-Roman-6e"/>
     <use transform="translate(445.556640625 0.015625)" xlink:href="#BitstreamVeraSerif-Roman-63"/>
     <use transform="translate(501.5625 0.015625)" xlink:href="#BitstreamVeraSerif-Roman-65"/>
     <use transform="translate(560.7421875 0.015625)" xlink:href="#BitstreamVeraSerif-Roman-20"/>
     <use transform="translate(592.529296875 0.015625)" xlink:href="#BitstreamVeraSerif-Roman-6d"/>
     <use transform="translate(687.353515625 0.015625)" xlink:href="#BitstreamVeraSerif-Roman-61"/>
     <use transform="translate(746.97265625 0.015625)" xlink:href="#BitstreamVeraSerif-Roman-74"/>
     <use transform="translate(787.158203125 0.015625)" xlink:href="#BitstreamVeraSerif-Roman-63"/>
     <use transform="translate(843.1640625 0.015625)" xlink:href="#BitstreamVeraSerif-Roman-68"/>
     <use transform="translate(907.568359375 0.015625)" xlink:href="#BitstreamVeraSerif-Roman-65"/>
     <use transform="translate(966.748046875 0.015625)" xlink:href="#BitstreamVeraSerif-Roman-64"/>
     <use transform="translate(1030.76171875 0.015625)" xlink:href="#BitstreamVeraSerif-Roman-20"/>
     <use transform="translate(1062.548828125 0.015625)" xlink:href="#BitstreamVeraSerif-Roman-63"/>
     <use transform="translate(1118.5546875 0.015625)" xlink:href="#BitstreamVeraSerif-Roman-61"/>
     <use transform="translate(1178.173828125 0.015625)" xlink:href="#BitstreamVeraSerif-Roman-76"/>
     <use transform="translate(1234.66796875 0.015625)" xlink:href="#BitstreamVeraSerif-Roman-69"/>
     <use transform="translate(1266.650390625 0.015625)" xlink:href="#BitstreamVeraSerif-Roman-74"/>
     <use transform="translate(1306.8359375 0.015625)" xlink:href="#BitstreamVeraSerif-Roman-79"/>
     <use transform="translate(1363.330078125 0.015625)" xlink:href="#BitstreamVeraSerif-Roman-2c"/>
     <use transform="translate(1395.1171875 0.015625)" xlink:href="#BitstreamVeraSerif-Roman-20"/>
     <use transform="translate(1426.904296875 0.015625)" xlink:href="#Cmmi10-54"/>
     <use transform="translate(1485.302734375 -16.990624999999994)scale(0.7)" xlink:href="#Cmr10-31"/>
     <use transform="translate(1544.238671875 0.015625)" xlink:href="#Cmr10-3d"/>
     <use transform="translate(1639.4828125 0.015625)" xlink:href="#Cmmi10-54"/>
     <use transform="translate(1697.88125 -16.990624999999994)scale(0.7)" xlink:href="#Cmr10-32"/>
    </g>
   </g>
   <g id="legend_1">
    <g id="patch_7">
     <path d="M 348.856408 68.234375 
L 406.057971 68.234375 
L 406.057971 21.2 
L 348.856408 21.2 
z
" style="fill:#ffffff;stroke:#000000;stroke-linejoin:miter;"/>
    </g>
    <g id="line2d_46">
     <path d="M 355.856408 29.298437 
L 369.856408 29.298437 
" style="fill:none;stroke:#0000ff;stroke-linecap:square;stroke-width:1.2;"/>
    </g>
    <g id="line2d_47"/>
    <g id="text_18">
     <!-- circ -->
     <g transform="translate(380.856408437 32.7984375)scale(0.1 -0.1)">
      <use xlink:href="#BitstreamVeraSerif-Roman-63"/>
      <use x="56.005859375" xlink:href="#BitstreamVeraSerif-Roman-69"/>
      <use x="87.98828125" xlink:href="#BitstreamVeraSerif-Roman-72"/>
      <use x="135.791015625" xlink:href="#BitstreamVeraSerif-Roman-63"/>
     </g>
    </g>
    <g id="line2d_48">
     <path d="M 355.856408 43.976562 
L 369.856408 43.976562 
" style="fill:none;stroke:#ff0000;stroke-linecap:square;stroke-width:1.2;"/>
    </g>
    <g id="line2d_49"/>
    <g id="text_19">
     <!-- refl -->
     <defs>
      <path d="M 20.515625 5.171875 
L 29 5.171875 
L 29 0 
L 2.875 0 
L 2.875 5.171875 
L 11.53125 5.171875 
L 11.53125 70.796875 
L 2.875 70.796875 
L 2.875 75.984375 
L 20.515625 75.984375 
z
" id="BitstreamVeraSerif-Roman-6c"/>
     </defs>
     <g transform="translate(380.856408437 47.4765625)scale(0.1 -0.1)">
      <use xlink:href="#BitstreamVeraSerif-Roman-72"/>
      <use x="47.802734375" xlink:href="#BitstreamVeraSerif-Roman-65"/>
      <use x="106.982421875" xlink:href="#BitstreamVeraSerif-Roman-66"/>
      <use x="143.994140625" xlink:href="#BitstreamVeraSerif-Roman-6c"/>
     </g>
    </g>
    <g id="line2d_50">
     <path d="M 355.856408 58.654687 
L 369.856408 58.654687 
" style="fill:none;stroke:#000000;stroke-dasharray:6.000000,6.000000;stroke-dashoffset:0.0;stroke-width:1.2;"/>
    </g>
    <g id="line2d_51"/>
    <g id="text_20">
     <!-- tran -->
     <g transform="translate(380.856408437 62.1546875)scale(0.1 -0.1)">
      <use xlink:href="#BitstreamVeraSerif-Roman-74"/>
      <use x="40.185546875" xlink:href="#BitstreamVeraSerif-Roman-72"/>
      <use x="87.98828125" xlink:href="#BitstreamVeraSerif-Roman-61"/>
      <use x="147.607421875" xlink:href="#BitstreamVeraSerif-Roman-6e"/>
     </g>
    </g>
   </g>
  </g>
 </g>
 <defs>
  <clipPath id="p137ff5276b">
   <rect height="201.216" width="373.24" x="37.8179709375" y="16.2"/>
  </clipPath>
 </defs>
</svg>
